<svg width="40" height="32" viewBox="0 0 40 32" fill="none" xmlns="http://www.w3.org/2000/svg">
<path d="M37.8386 22.7448V3.57811H32.3023C31.3862 1.6117 29.3919 0.244751 27.0834 0.244751C24.7748 0.244751 22.7805 1.6117 21.8644 3.57811H2.16148V22.7448H0V25.8849C0 29.1218 2.63336 31.7551 5.87031 31.7551H34.1298C37.3667 31.7551 40.0001 29.1218 40.0001 25.8849V22.7448H37.8386ZM27.0834 2.5885C28.9645 2.5885 30.4948 4.11889 30.4948 5.99999C30.4948 7.88108 28.9645 9.41147 27.0834 9.41147C25.2023 9.41147 23.6719 7.88108 23.6719 5.99999C23.6719 4.11889 25.2023 2.5885 27.0834 2.5885ZM29.2318 11.3376V15.0183L27.0834 14.479L24.9349 15.0183V11.3376C25.5992 11.6059 26.324 11.7551 27.0834 11.7551C27.8427 11.7551 28.5675 11.606 29.2318 11.3376ZM4.50523 5.92186H21.3301C21.3301 7.27959 21.8018 8.60631 22.5912 9.59155V18.023L27.0834 16.8955L31.5755 18.023V9.59155C32.3649 8.60631 32.8366 7.27959 32.8366 5.92186H35.4948V22.7448H20.4851C20.3963 20.4367 19.1298 18.4256 17.2692 17.2987C18.2204 16.3897 18.8148 15.1105 18.8148 13.6941C18.8148 10.9436 16.577 8.70592 13.8265 8.70592C11.076 8.70592 8.83828 10.9437 8.83828 13.6941C8.83828 15.1105 9.43258 16.3898 10.3837 17.2987C8.52328 18.4255 7.25664 20.4366 7.16797 22.7448H4.50523V5.92186ZM13.8262 18.6823H13.8266C13.8266 18.6823 13.8268 18.6823 13.827 18.6823C16.1226 18.6826 18.0058 20.4823 18.1402 22.7448H9.51289C9.64742 20.4823 11.5305 18.6826 13.8262 18.6823ZM11.1821 13.6941C11.1821 12.2359 12.3684 11.0497 13.8266 11.0497C15.2848 11.0497 16.4711 12.236 16.4711 13.6941C16.4711 15.1522 15.285 16.3384 13.827 16.3386C13.8268 16.3386 13.8267 16.3386 13.8266 16.3386C13.8264 16.3386 13.8263 16.3386 13.8262 16.3386C12.3682 16.3384 11.1821 15.1522 11.1821 13.6941ZM37.6562 25.8849C37.6562 27.8294 36.0743 29.4114 34.1298 29.4114H5.87031C3.92578 29.4114 2.34375 27.8294 2.34375 25.8849V25.0911H37.6562V25.8849Z" fill="#1F4B3F"/>
</svg>
