<svg width="40" height="40" viewBox="0 0 40 40" fill="none" xmlns="http://www.w3.org/2000/svg">
<path fill-rule="evenodd" clip-rule="evenodd" d="M0 15C0 6.71573 6.71573 0 15 0H25C33.2843 0 40 6.71573 40 15V25C40 33.2843 33.2843 40 25 40H15C6.71573 40 0 33.2843 0 25V15ZM18.7645 12.6393C17.7267 12.8229 16.7983 13.3242 16.0837 14.0389C15.5876 14.535 15.1945 15.1337 14.939 15.8011H20.5337V19.4076H14.9392H14.6065V24.6309V30.3248H11V17.6045C11 15.2166 11.9685 13.0541 13.5336 11.4889C14.9032 10.1195 16.7298 9.20691 18.7645 9.00008V12.6393ZM20.5339 9.00008V12.6242C22.9018 12.9897 24.7156 15.0368 24.7156 17.507C24.7156 18.8495 24.165 20.2195 23.2147 21.1698C22.3759 22.009 21.2423 22.5534 19.9825 22.6355V21.1765H16.3759V21.439V25.6117V30.3248H19.9825V26.2469C20.8214 26.215 21.6292 26.0633 22.3901 25.8092C22.3451 25.8243 22.2999 25.8394 22.2543 25.8539L24.8357 30.3248H29.0002L25.3906 24.0725C25.3584 24.101 25.326 24.1289 25.2935 24.1569C25.456 24.0168 25.6131 23.8712 25.7648 23.7198C27.33 22.1546 28.2983 19.9921 28.2983 17.6045C28.2983 15.2163 27.33 13.0538 25.7648 11.4889C24.3953 10.1195 22.5685 9.20691 20.5339 9.00008ZM25.2627 24.1833C25.2729 24.1745 25.2832 24.1657 25.2935 24.1569C25.2832 24.1657 25.273 24.1745 25.2627 24.1833Z" fill="white"/>
</svg>
