<svg width="146" height="60" viewBox="0 0 146 60" fill="none" xmlns="http://www.w3.org/2000/svg">
<g clip-path="url(#clip0_73_252)">
<path fill-rule="evenodd" clip-rule="evenodd" d="M93.6804 0C92.0845 0.772939 90.5921 1.74348 89.2384 2.8888C86.966 4.88316 85.0079 8.63014 82.3367 15.1994C80.7835 19.031 77.9129 27.2865 77.9129 27.2865C77.9129 27.2865 75.985 19.5266 74.7521 14.1116C74.0269 10.9629 72.8182 6.59952 69.2283 6.59952C69.2283 6.59952 70.9749 10.2861 74.2263 25.0745C75.2114 29.5588 76.4685 32.5504 79.2485 32.5504C81.3698 25.2981 83.5333 19.6596 86.1562 12.8666C89.7884 3.46898 93.6804 0 93.6804 0ZM89.7038 15.7131C92.4475 15.5318 94.7682 13.2051 95.0221 10.969C92.7557 12.9452 90.6465 13.6704 88.0055 14.2687C87.9088 14.6676 88.0055 15.8219 89.7038 15.7131Z" fill="white"/>
<path fill-rule="evenodd" clip-rule="evenodd" d="M135.973 28.3199C143.334 22.4396 140.542 19.4359 138.173 19.859C137.22 20.0231 136.319 20.4109 135.545 20.9904C134.771 21.57 134.146 22.3248 133.72 23.193C133.294 24.0611 133.08 25.0179 133.096 25.9848C133.111 26.9516 133.356 27.901 133.809 28.755C132.889 29.4097 131.935 30.0149 130.951 30.5681C130.951 30.5681 129.827 24.1197 129.561 22.4335C128.805 17.5987 125.935 18.1305 124.242 19.5629C123.68 20.0538 123.197 20.6287 122.81 21.2671C121.668 23.0137 117.202 31.6801 116.694 22.0649C116.585 19.9738 115.751 18.7288 113.473 18.9827C109.587 19.4299 106.305 27.3106 105.356 27.1354C104.039 26.8936 106.342 6.98026 106.13 5.37873C106.027 4.58098 104.432 4.06124 103.501 4.77438C103.501 4.85294 102.854 13.6463 101.519 18.5596C100.219 23.3944 99.1014 26.2047 98.3762 25.9932C96.9862 25.5943 99.4097 8.20105 99.2042 6.6116C99.0954 5.80782 97.5059 5.35455 96.5752 6.04351C96.5752 6.04351 95.5539 13.9303 94.4781 17.6954C93.07 22.6148 91.5289 26.3799 90.8943 26.1926C89.595 25.8118 90.8581 20.56 90.562 18.2998C90.4592 17.496 88.8758 17.2059 87.9451 17.9009C87.9451 17.9009 87.8907 19.4057 87.6671 20.9226C86.8391 26.5371 88.2231 27.9573 89.3955 28.1749C91.3053 28.5496 93.4568 25.0081 95.4874 16.5169C94.4902 26.7909 95.1973 27.5342 96.3154 28.0419C99.5728 29.4198 101.289 21.5753 102.431 17.5262C101.404 27.8727 102.268 28.8396 103.41 29.3352C105.592 30.272 106.867 26.8332 108.995 23.5153C108.185 25.7877 109.539 28.4287 111.479 28.7127C113.896 29.0633 115.377 26.7486 115.377 26.7486C116.863 29.4923 118.882 28.3441 121.517 24.8932C121.299 26.9057 121.722 30.3324 124.321 30.1873C127.186 30.0302 127.947 26.6761 127.947 26.6761C128.243 28.1386 128.551 29.7764 128.769 31.5109C126.176 32.8525 122.768 34.6837 121.154 38.0077C120.641 38.9335 120.339 39.9609 120.268 41.0169C120.197 42.0728 120.359 43.1315 120.743 44.1176C122.121 47.4355 127.427 47.8828 130.123 42.637C131.525 39.9235 131.579 35.1672 131.096 31.3961C132.19 30.7494 133.664 29.8791 134.251 29.5044C135.162 30.6083 136.403 31.3918 137.792 31.7405C141.781 32.5625 145.757 30.7554 145.757 30.7554C142.736 31.3598 138.07 30.967 135.973 28.338V28.3199ZM111.152 26.1503C108.952 24.5306 112.53 18.8981 113.914 20.7111C115.298 22.5242 112.844 27.3952 111.152 26.1503ZM124.079 27.2744C122.786 27.6249 122.484 24.8086 123.372 22.911C124.061 21.4303 124.829 20.4936 125.596 20.2639C127.294 19.7623 127.053 26.4766 124.079 27.2744ZM128.817 39.8872C128.346 43.1386 125.33 45.2055 123.614 44.5347C122.514 44.0995 120.737 41.7788 122.865 37.6511C124.109 35.2337 125.941 34.025 128.908 32.4597C129.237 34.9291 129.205 37.4333 128.811 39.8932L128.817 39.8872ZM135.459 27.6068C134.474 25.7151 134.933 22.6692 137.091 22.2583C138.717 21.944 138.692 24.029 137.587 25.4069C136.966 26.2208 136.252 26.9591 135.459 27.6068ZM3.86171 15.7131C2.41731 15.7131 1.19048 15.4593 0.900391 14.6011C0.900391 14.6011 12.9391 11.7546 18.5354 10.6426C30.1147 8.34005 38.1224 7.25222 38.1224 7.25222C36.8423 8.06733 35.4813 8.74782 34.0611 9.28284C31.5652 10.1773 26.265 11.1563 20.3061 12.5766C20.3061 12.5766 18.3903 31.8735 17.9371 35.0222C17.7437 36.4001 16.0877 39.6031 14.5164 39.5669C14.5164 39.5669 16.5229 16.6741 16.8915 13.332C16.8915 13.2957 5.25776 15.7131 3.86171 15.7131ZM44.6433 11.8574C42.3226 13.3924 40.0503 14.1479 37.4274 14.9517C37.3065 15.3445 37.3488 16.2027 39.041 16.2873C41.2831 16.4021 44.6917 13.2655 44.6433 11.8574Z" fill="white"/>
<path fill-rule="evenodd" clip-rule="evenodd" d="M67.1252 21.5814C67.1252 20.7172 67.1615 19.72 66.1522 19.0068C64.8408 18.0701 63.1305 18.4327 61.6861 19.4178C59.0088 21.2309 56.9117 23.896 55.7332 24.9174C58.5434 22.0709 57.3831 18.2695 54.0833 18.2695C51.8654 18.2695 49.6111 20.5721 48.0398 24.313C48.2513 22.1857 48.4326 20.6869 48.1607 19.6656C47.9975 19.0612 46.8311 18.5294 45.5438 19.2365C45.2159 20.6455 44.6803 21.998 43.9544 23.2494C42.8364 25.3646 41.3678 27.3227 40.0866 27.0205C38.8053 26.7184 39.9717 21.5814 39.6756 19.3151C39.5668 18.5113 37.8625 18.2212 36.9621 18.9101C36.9621 18.9101 36.8956 23.4428 33.5837 26.531C32.0487 27.9392 31.118 27.1958 31.3416 22.7659C31.396 21.8231 31.396 20.554 30.3021 19.7441C28.2111 18.2574 25.0443 19.9859 23.6542 22.2945C21.4181 26.0536 23.0499 29.2748 25.3223 29.7401C27.4375 30.1753 29.1176 27.8727 29.1176 27.8727C30.8944 32.1031 35.6446 26.5189 36.678 22.9653C35.9528 28.1325 37.3549 29.2264 38.5515 29.1962C43.1627 29.0632 45.4351 21.3396 45.4351 21.3396C45.2779 25.6366 43.4468 43.0419 43.4468 43.0419C45.562 43.0419 46.0938 41.3678 46.2691 40.135C47.2844 32.9976 48.1426 23.3159 52.5604 20.9589C53.9685 20.2095 54.4459 21.5089 54.3734 22.1676C53.7691 26.1805 49.3694 25.9508 49.3694 25.9508C49.5916 26.4357 49.9496 26.8456 50.4002 27.131C50.8507 27.4163 51.3744 27.5648 51.9077 27.5584C55.3102 27.6853 56.7062 24.7482 59.7642 21.7808C58.2473 24.9537 59.4258 27.5947 61.3537 27.9935C63.064 28.3441 64.7864 26.9359 65.155 26.3618C66.8835 28.8819 69.2102 26.6821 69.2102 26.6821C68.6059 26.5975 67.1252 26.0354 67.1131 21.5814H67.1252ZM24.1679 25.8118C23.5636 22.0769 27.9391 19.4238 28.2896 21.7748C28.9302 26.0536 24.7058 29.027 24.1679 25.8118ZM60.6828 24.3674C59.9455 20.7051 64.0068 18.7168 64.309 20.6688C64.9496 24.5729 61.2449 27.3167 60.6828 24.3674ZM69.9717 40.3404C70.4673 40.3404 70.8601 40.5036 70.8601 40.7393C70.8151 40.9341 70.7191 41.1134 70.5821 41.2591L70.3283 41.5371C70.3283 41.5371 70.3283 45.7675 70.4008 45.8642C70.5139 46.0335 70.6479 46.1878 70.7997 46.3235L70.9266 46.4625L70.9991 46.5653L71.0535 46.662V46.7224V46.7828V46.8856C71.0535 47.0608 71.0535 47.1998 70.6849 47.363L70.5217 47.4295L70.3887 47.4778L70.2739 47.5141L69.9717 47.6289L69.2707 47.3751C69.2707 47.3388 70.147 46.9581 70.2074 46.8856V46.7949V46.7405L70.1651 46.6801L70.0805 46.5773L69.9899 46.4867C69.8198 46.3602 69.6691 46.2095 69.5426 46.0395C69.4641 45.84 69.5064 42.3227 69.4943 42.0447L68.8597 42.4315L68.7086 42.5222L68.5273 42.6007L68.4004 42.643H68.2916H68.201H67.7779H67.6933H67.5845H67.4818L67.8444 42.3288C67.9592 42.22 68.3823 41.8634 68.618 41.6579C69.077 41.2643 69.5091 40.8403 69.9113 40.3888L69.9717 40.3404ZM68.34 47.641C69.1619 47.8344 69.5487 47.9553 69.7119 48.5717L70.2074 50.7111C69.8884 50.5718 69.6058 50.3608 69.3816 50.0946C69.1573 49.8284 68.9973 49.5141 68.9141 49.1761C68.8144 48.6299 68.6092 48.1085 68.3098 47.641H68.34ZM69.8629 37.2039C69.8675 37.1129 69.906 37.027 69.9709 36.9632C70.0359 36.8994 70.1225 36.8623 70.2135 36.8594C70.5265 36.8808 70.8305 36.9738 71.1019 37.1313L71.392 38.3944C71.503 38.3902 71.6113 38.4292 71.6941 38.5032V38.5334V38.5697V38.618V38.6543V38.757V38.8054V38.8477V38.9021L71.6579 38.9504L71.6156 38.9988L71.5672 39.035L71.4826 39.0774H71.4343C71.4343 39.5729 71.3255 39.6817 71.2106 39.7905L71.0837 39.6334L70.8903 39.3795L69.4882 40.0322C69.2066 40.0336 68.9261 39.997 68.6542 39.9234C68.4488 39.857 68.1224 39.5608 68.1647 39.5004C68.3339 39.2647 68.9443 38.9625 70.4552 38.479C70.3646 38.189 70.3948 38.1587 70.292 37.8747C70.1884 37.5828 70.0139 37.3212 69.7844 37.1132L69.8629 37.2039ZM73.7852 46.3537H73.8577L76.2268 45.8703C77.4355 45.417 77.3206 46.3356 77.2421 47.0064L77.1756 47.6108C76.6619 49.9134 76.2207 51.1039 75.4351 51.1039C75.2614 51.0961 75.0919 51.0486 74.9395 50.9649L74.5769 50.5902C74.4253 50.5281 74.2633 50.4952 74.0994 50.4935H73.5737C72.9089 50.4935 72.0809 50.6386 70.709 50.7595H70.4129V50.693V50.5661L70.4552 50.4815L70.5156 50.415L70.57 50.3666H70.6184L70.6969 50.3304H70.7513H70.8057L73.06 49.8288L73.5072 49.7381L73.9423 49.6958C74.3597 49.6243 74.7889 49.7059 75.151 49.9255C75.4043 49.6108 75.5932 49.2494 75.707 48.8618C75.9441 48.1611 76.0626 47.4258 76.0575 46.6861L74.5829 46.9702C74.5829 46.9702 73.483 47.1394 73.4226 47.1394C73.3621 47.1394 73.6583 46.7768 73.7429 46.6257L73.8698 46.4565L73.9484 46.39" fill="white"/>
<path fill-rule="evenodd" clip-rule="evenodd" d="M71.0051 48.3058C71.5249 48.3662 71.7787 48.3058 72.0446 48.3602L71.9419 48.9283H71.5551C71.0353 48.9706 70.8722 48.9706 70.7573 48.6744C70.7573 48.6442 70.7573 48.62 70.7573 48.5959C70.7593 48.5798 70.7593 48.5636 70.7573 48.5475V48.481L70.7936 48.4267L70.848 48.3602L70.8903 48.2997L71.0051 48.3058ZM73.0599 39.44C73.9181 39.6031 74.2686 39.8872 74.2686 40.2135C74.2686 40.2921 74.2686 40.274 74.2686 40.3646L75.8762 39.9416C76.2086 40.1289 76.2932 40.28 76.2932 40.4069C76.2932 40.5338 76.2388 40.5338 75.8943 40.6124L74.2747 40.9569C74.329 41.4162 74.329 41.4404 74.3653 41.6942L75.8822 41.3799C76.2086 41.6337 76.3053 41.7848 76.3234 41.9238C76.3415 42.0628 76.3234 42.087 75.9789 42.1293L74.4378 42.365V42.643C74.4378 42.8424 74.4378 42.921 74.4378 43.1084C74.6152 43.0918 74.791 43.0615 74.9636 43.0177L75.568 42.9089C75.6498 42.9409 75.727 42.9835 75.7976 43.0358C75.8713 43.0824 75.9296 43.1496 75.9651 43.2292C76.0006 43.3088 76.0117 43.3972 75.9971 43.4831C75.9971 43.5616 75.8943 43.5979 75.6042 43.5979H75.3806C75.1301 43.612 74.8813 43.6484 74.6373 43.7067C74.5587 43.7067 74.5043 43.7067 74.4801 43.7913C74.4574 44.0264 74.4574 44.2632 74.4801 44.4984L75.3383 44.3533C75.719 44.2868 75.9427 44.3533 76.0696 44.4863C76.1855 44.6246 76.2553 44.7958 76.269 44.9758C76.269 45.0665 76.1904 45.1269 76.0394 45.1269L75.846 45.0906H75.6888C75.1626 45.0917 74.6379 45.1485 74.1236 45.2599C73.7549 45.3324 72.9572 45.6104 72.3105 45.7977L71.8089 45.9549L71.7726 45.8521L71.7303 45.7131V45.5681C71.7249 45.4909 71.742 45.4139 71.7795 45.3463C71.8171 45.2787 71.8735 45.2235 71.9419 45.1873L73.5071 44.6918C73.5071 44.6918 73.4769 44.1599 73.4769 43.9122H73.4346C73.2835 43.9484 71.9962 44.4017 71.9962 44.4017L71.966 44.2687L71.8996 43.8638C72.1776 43.7308 73.489 43.2595 73.489 43.2595V42.9875L73.4588 42.5403L72.9693 42.6914L72.3226 42.8908L72.0204 42.9935L71.9298 42.3892C72.0204 42.3529 73.4225 41.9299 73.4225 41.9299V41.7546C73.4116 41.5511 73.3833 41.3489 73.3379 41.1503C72.933 41.247 72.2199 41.4947 72.0144 41.5371L71.9781 41.398L71.9116 41.0959C72.0446 41.0596 72.3709 40.9146 73.211 40.6305L73.3258 40.3042V40.2437V40.1531V40.0926L73.2049 39.8267L73.0357 39.446L73.0599 39.44ZM75.2356 47.635V47.9976C75.2356 48.1184 75.2356 48.342 75.0301 48.3179H74.8065H74.5708C74.4068 48.473 74.192 48.5632 73.9664 48.5717C73.8637 48.5717 73.7912 48.3964 73.7126 48.0701L75.2356 47.635ZM74.9334 36.5391C75.1691 36.6841 75.3746 36.8533 75.3746 37.1434C75.3708 37.3121 75.3338 37.4785 75.2658 37.6329L76.8794 37.5121C77.4838 37.8324 77.7859 38.0862 77.7859 38.2675C77.7859 38.4488 77.6167 38.6241 77.1816 38.6241H76.8915L74.9938 38.5032C74.5768 39.0713 74.2565 39.174 74.1296 39.1861V39.1378V39.0713V39.0169V38.8779V38.8175V38.7449L74.1598 38.5576L74.2444 38.2433C74.5224 37.222 74.7702 36.672 74.9697 36.5511L74.9334 36.5391ZM108.481 41.386C108.573 41.8013 108.628 42.224 108.644 42.6491C108.644 42.6491 108.692 44.6736 108.644 45.278C108.602 45.7131 108.602 46.3416 108.578 46.6196C108.578 47.0306 108.523 47.3449 108.499 47.6954C108.455 48.034 108.439 48.3755 108.451 48.7167V48.9041C108.451 49.0733 108.686 49.1096 109.007 49.0068L109.684 48.7107C110.332 48.47 110.994 48.2682 111.666 48.1063C112.699 47.8404 113.829 47.8102 114.96 47.6289C115.281 47.6434 115.597 47.7107 115.896 47.8283C116.136 47.9483 116.344 48.1245 116.501 48.342C116.506 48.3598 116.506 48.3787 116.501 48.3964C116.506 48.4406 116.506 48.4852 116.501 48.5294C116.502 48.5908 116.49 48.6517 116.466 48.7082C116.442 48.7647 116.406 48.8154 116.361 48.8571C116.316 48.8988 116.262 48.9304 116.204 48.95C116.146 48.9695 116.084 48.9765 116.023 48.9706C115.728 48.9836 115.435 48.9078 115.183 48.753H114.216C113.825 48.7439 113.433 48.7601 113.044 48.8014C112.57 48.8486 112.1 48.9253 111.636 49.031C111.14 49.1458 110.288 49.3755 109.823 49.5326C109.407 49.7206 109.003 49.9345 108.614 50.1732C108.481 50.2313 108.338 50.2613 108.194 50.2613C108.049 50.2613 107.906 50.2313 107.774 50.1732C107.447 49.9859 107.327 49.9134 107.296 49.4903C107.287 49.3777 107.287 49.2645 107.296 49.1519C107.297 48.9495 107.313 48.7474 107.345 48.5475L107.58 45.6587C107.58 45.6587 107.58 45.3807 107.58 45.3384C107.614 44.6781 107.614 44.0165 107.58 43.3561C107.514 42.6007 107.423 41.8513 107.296 41.108L108.36 41.398L108.481 41.386Z" fill="white"/>
<path fill-rule="evenodd" clip-rule="evenodd" d="M113.515 39.7059H113.582H113.666H113.775H113.872C114.027 39.7053 114.179 39.7488 114.311 39.8311C114.442 39.9135 114.548 40.0314 114.615 40.1712L113.842 41.0898L113.116 41.9299C113.364 41.9299 113.419 42.0205 113.419 42.1475L113.388 42.2562C113.388 42.3288 113.31 42.5342 113.292 42.5645C111.176 43.5254 110.385 44.2506 110.215 45.0121V45.145L111.497 44.1479H111.551H111.642H111.72H111.896C112.145 44.1479 112.315 44.305 112.403 44.6193L111.938 45.7856L111.569 46.8674C111.53 46.9334 111.475 46.9891 111.41 47.0301C111.345 47.071 111.271 47.096 111.195 47.1031C111.149 47.1044 111.104 47.0958 111.062 47.0778C111.02 47.0598 110.982 47.0329 110.952 46.999C110.921 46.9651 110.899 46.9249 110.885 46.8813C110.872 46.8377 110.868 46.7918 110.874 46.7466V46.4504L110.904 46.2993L110.947 46.1543L111.031 45.967L111.545 45.0423C110.735 45.3263 110.397 45.8159 110.034 46.8553L109.865 47.4899C109.648 47.2844 109.478 47.0342 109.368 46.7566C109.257 46.479 109.208 46.1807 109.224 45.8823V45.5741L109.303 45.0725C109.573 44.3039 110.03 43.6145 110.632 43.0661L110.59 42.0749L110.536 40.5278C110.62 40.4782 110.712 40.4435 110.808 40.4251C111.078 40.4536 111.341 40.5336 111.581 40.6607L111.255 40.8783V41.6579C111.25 41.8277 111.281 41.9965 111.346 42.1535C111.417 42.3046 111.506 42.4466 111.612 42.5765L112.5 42.0205L112.887 40.6184L112.367 40.9569H112.325H112.264H112.18H112.101C112.018 40.9536 111.939 40.9217 111.878 40.8666C111.816 40.8114 111.775 40.7365 111.763 40.6547L113.533 39.7421L113.515 39.7059ZM114.452 37.3731C114.734 37.4122 115.004 37.5175 115.238 37.6802C115.472 37.843 115.665 38.0587 115.8 38.3098C114.404 38.5274 113.473 38.9142 111.932 39.2466C111.56 39.3554 111.18 39.4342 110.796 39.4823C110.596 39.4823 110.294 39.2828 110.107 39.2466C109.919 39.2103 109.502 38.9081 109.242 38.7873L114.452 37.3731Z" fill="white"/>
<path fill-rule="evenodd" clip-rule="evenodd" d="M114.917 45.3868C115.522 45.5621 115.522 45.7917 115.522 46.0697C115.465 46.2537 115.366 46.4215 115.232 46.5592L113.539 47.1636L114.694 46.1966C114.597 46.1732 114.509 46.1245 114.438 46.0554C114.367 45.9863 114.315 45.8995 114.289 45.8038V45.7494C114.289 45.7131 114.289 45.6829 114.289 45.6467L114.259 45.5621V45.5198V45.3264V45.2236L114.313 45.0967L114.379 44.9698L115.238 43.8759C114.984 43.8759 114.633 43.9605 113.823 44.6858C113.739 45.0132 113.702 45.3511 113.715 45.689V46.2027C113.576 46.3124 113.408 46.3796 113.231 46.3961C112.995 46.3961 112.887 46.0637 112.887 45.3808C113.003 45.1274 113.057 44.8496 113.044 44.5709C113.062 44.2603 113.023 43.9489 112.929 43.6523L113.533 44.0633C114.143 43.5986 114.822 43.2335 115.546 42.9815C115.657 42.9872 115.762 43.0322 115.842 43.1084C115.915 43.2157 115.957 43.3413 115.963 43.471C115.95 43.668 115.876 43.8562 115.751 44.0089L114.96 45.3626L114.917 45.3868ZM38.9745 48.7893C37.6273 49.3163 36.1906 49.5769 34.7441 49.5568C32.8222 49.5568 31.3537 49.1398 30.3202 48.3481C29.809 47.9678 29.3954 47.4713 29.1138 46.8997C28.8322 46.328 28.6906 45.6976 28.7006 45.0605C28.6815 44.0214 28.8877 42.9905 29.3049 42.0387C29.587 41.5208 29.8412 40.9882 30.0664 40.4432C30.0664 40.3949 29.9818 40.3465 29.9153 40.3465C29.8488 40.3465 29.6313 40.6185 29.1538 40.836C28.7615 41.0326 28.321 41.1123 27.8847 41.0657C27.6508 41.061 27.4252 40.978 27.2441 40.83C27.2287 40.8166 27.2164 40.8001 27.2078 40.7816L27.4556 40.6547L27.5644 40.5943C28.3829 40.2033 29.1673 39.7444 29.9093 39.2224C30.1471 39.0227 30.4322 38.8875 30.7372 38.8296C30.9004 38.8296 31.0998 39.0351 31.3416 39.2889C31.5441 39.5109 31.6599 39.7983 31.6679 40.0987C31.6752 40.2476 31.623 40.3932 31.5229 40.5036C30.3539 41.6481 29.6829 43.2071 29.6554 44.8429C29.6677 45.3359 29.7851 45.8207 29.9998 46.2647C30.2145 46.7087 30.5215 47.1017 30.9004 47.4174C31.6498 48.1306 32.7135 48.475 34.726 48.4146C36.9923 48.3542 38.2614 47.8103 39.0108 47.0367C39.3906 46.6564 39.6842 46.199 39.8719 45.6954C40.0596 45.1918 40.1369 44.6537 40.0986 44.1177C40.0986 43.9726 40.0986 43.7369 40.0986 43.7248L40.2316 43.9424C40.3922 44.3098 40.4981 44.6987 40.5459 45.0967C40.6932 45.7338 40.7802 46.3833 40.8057 47.0367C40.8057 47.7136 40.2014 48.2937 38.9927 48.8135" fill="white"/>
<path fill-rule="evenodd" clip-rule="evenodd" d="M38.8294 44.8066C38.567 44.8253 38.3034 44.8131 38.0438 44.7704C37.694 44.714 37.3683 44.5565 37.107 44.3171C36.6115 43.9363 36.9197 44.16 36.0797 43.3018C35.8381 43.0114 35.5526 42.7606 35.2336 42.5584V45.3143C35.2592 45.7584 35.2389 46.2039 35.1731 46.6438C35.1757 46.676 35.1757 46.7084 35.1731 46.7405C34.9435 47.1334 34.188 46.8372 33.91 46.662C33.7298 46.5536 33.5562 46.4345 33.3903 46.3054C33.0786 46.0732 32.8498 45.7469 32.7376 45.3747C32.7347 45.3264 32.7347 45.278 32.7376 45.2297C32.7376 45.2297 33.5716 45.6527 33.7831 45.7252H33.8859C33.9946 45.7615 34.2364 45.7857 34.2847 45.7252C34.3331 45.6648 34.3573 45.4412 34.3633 44.8247C34.3693 44.2083 34.4177 43.2474 34.4177 41.9722C34.4177 39.5548 34.3573 38.6301 34.1518 38.5153C34.1262 38.5034 34.0984 38.4973 34.0702 38.4973C34.042 38.4973 34.0142 38.5034 33.9886 38.5153C33.9443 38.5181 33.8999 38.5181 33.8556 38.5153C33.8556 38.5153 33.8073 38.4791 33.8073 38.4307C33.8073 38.1769 34.0188 38.0439 34.3452 38.0439C34.4929 38.0361 34.6402 38.0658 34.7733 38.1303C34.9065 38.1947 35.0212 38.2918 35.1066 38.4126C35.2696 38.8314 35.3317 39.2828 35.288 39.7301C35.288 40.135 35.288 40.3767 35.288 41.5431C35.3846 41.5915 35.7473 42.0024 36.1884 42.3227C36.6576 42.69 37.1524 43.0232 37.6691 43.3199C37.9773 43.471 37.8323 43.4106 38.352 43.6704C38.8718 43.9303 39.2344 44.0753 39.5245 44.2204C39.8145 44.3654 40.0442 44.4923 40.0442 44.4923C39.6842 44.6512 39.3038 44.759 38.9141 44.8127" fill="white"/>
<path fill-rule="evenodd" clip-rule="evenodd" d="M37.24 40.7574C36.6054 41.1563 36.4544 41.2349 36.2126 41.3618L36.0978 41.4101L35.9165 41.4645H35.7956C35.7142 41.4836 35.6313 41.4957 35.5478 41.5008C35.5478 41.5008 35.7533 41.2711 35.9467 41.0354C36.1401 40.7998 36.2791 40.6728 36.4846 40.4311C36.631 40.2462 36.7529 40.043 36.8472 39.8267C36.862 39.7857 36.862 39.7408 36.8472 39.6998L36.7988 39.6575L36.7021 39.6213C36.7021 39.6213 36.7626 39.5487 36.8472 39.5004C36.9656 39.4507 37.0936 39.428 37.2219 39.4339C37.4315 39.4374 37.6378 39.487 37.8262 39.579C38.0378 39.6817 38.0801 39.7724 38.0801 39.8691C38.0801 39.9657 37.7175 40.4311 37.2581 40.7333L37.24 40.7574ZM51.2066 41.3376C50.7427 42.0492 50.1903 42.6991 49.5627 43.2715C49.0035 43.8516 48.2976 44.2692 47.52 44.4802C47.4078 44.496 47.2948 44.5061 47.1816 44.5105C47.1816 44.5105 47.4777 44.1176 47.7436 43.8034C47.8766 43.6583 48.0458 43.4347 48.1667 43.2957C49.0465 42.2851 49.7902 41.1636 50.3786 39.9597C50.5255 39.6436 50.6468 39.3162 50.7412 38.9807C50.8084 38.742 50.7892 38.4873 50.6868 38.2615C50.806 38.2962 50.9214 38.3428 51.0313 38.4005C51.2802 38.5123 51.4904 38.6953 51.6357 38.9263C51.8044 39.2163 51.8664 39.5562 51.8109 39.8872C51.8109 39.9416 51.7505 40.1229 51.7384 40.1591C51.6027 40.582 51.4181 40.9877 51.1884 41.3678L51.2066 41.3376ZM51.2912 46.807C51.1703 47.0548 51.0676 47.3267 50.9286 47.6954C50.8379 47.9311 50.6868 48.2514 50.6143 48.4206C50.5571 48.5595 50.4841 48.6913 50.3967 48.8134C50.3061 48.9766 50.0946 48.9645 49.9858 48.9645C49.877 48.9645 49.744 48.8437 49.6776 48.6986C49.454 48.1668 49.454 46.8856 49.5083 45.0181C49.5083 44.6132 49.5083 44.2748 49.5083 43.8094C49.5083 43.749 49.5083 43.4649 49.5083 43.4106C49.6296 43.4436 49.7486 43.4839 49.8649 43.5314C49.9024 43.5471 49.9387 43.5652 49.9737 43.5858C50.0292 43.6191 50.0783 43.6621 50.1187 43.7127C50.2753 43.9765 50.3607 44.2763 50.3665 44.583C50.3883 45.0017 50.3883 45.4213 50.3665 45.84C50.3149 46.2554 50.3149 46.6756 50.3665 47.091C50.433 47.091 50.427 47.0367 50.4572 47.0064L50.6264 46.8614C50.7853 46.7046 50.9666 46.5722 51.1643 46.4686C51.2541 46.4236 51.3497 46.3911 51.4483 46.3719L51.3698 46.5471L51.2489 46.813L51.2912 46.807ZM59.5285 44.9637C59.0954 45.1523 58.6874 45.3939 58.3137 45.6829C58.2775 45.6829 58.0841 45.8461 58.0539 45.8582C58.0119 45.7409 58.0119 45.6128 58.0539 45.4956C58.1053 45.4 58.1705 45.3124 58.2473 45.2357L58.3681 45.1088C58.3681 45.1088 58.4346 45.0483 58.4286 45.0302C58.3017 44.9516 58.0841 44.8791 57.3468 45.0302C57.4611 45.579 57.5218 46.1377 57.5281 46.6982C57.541 47.1111 57.4544 47.521 57.2756 47.8934C57.0968 48.2657 56.831 48.5896 56.5007 48.8376C56.1835 49.0544 55.8186 49.1913 55.437 49.2365C54.9364 49.3014 54.4277 49.2173 53.9745 48.9948C53.6902 48.8332 53.4576 48.5943 53.3037 48.3058L53.2674 48.2272C53.23 48.1685 53.1996 48.1056 53.1768 48.0399C53.2692 48.1504 53.3702 48.2535 53.4789 48.3481C53.5032 48.3689 53.5295 48.3871 53.5575 48.4025L53.6905 48.4871H53.7449C54.1406 48.6588 54.5799 48.7031 55.0019 48.614C55.2902 48.5653 55.5586 48.4353 55.7755 48.2393C56.4947 47.502 56.5672 46.5109 56.265 45.2176C55.9411 45.2837 55.6265 45.3892 55.3282 45.5318C54.8565 45.6925 54.4152 45.9316 54.0229 46.2389C53.775 46.414 53.5479 46.6168 53.346 46.8433C53.2357 46.9767 53.1386 47.1203 53.0559 47.2724C53.0587 46.9674 53.1267 46.6665 53.2553 46.39C53.9115 45.3624 54.9259 44.615 56.1018 44.2929C56.0595 44.166 56.0112 44.0391 55.9628 43.9122C55.9628 43.9122 55.8843 43.7309 55.8782 43.7127C55.5096 43.0721 55.4491 42.9633 55.153 43.0117C55.1167 43.0842 54.7843 43.1144 54.7239 43.0963C54.693 43.0767 54.6664 43.0511 54.6456 43.021C54.6248 42.9909 54.6104 42.9569 54.603 42.921C54.5668 42.7155 54.5003 42.1716 54.6876 42.0266C55.0623 41.5612 55.2074 41.386 56.1562 40.3767C56.6336 39.8509 56.821 39.718 56.8452 39.6454C56.8693 39.5729 56.6155 39.7603 56.41 39.8388C55.2436 40.413 53.9926 40.5278 53.3883 40.141C53.2897 40.0055 53.2104 39.8571 53.1526 39.6998V39.6273C53.1504 39.5931 53.1504 39.5588 53.1526 39.5246H53.4125C53.7816 39.5189 54.148 39.4598 54.5003 39.3493C55.3337 39.1373 56.1436 38.8417 56.9177 38.467C57.18 38.3014 57.4959 38.2429 57.8 38.3038C57.8953 38.3408 57.9819 38.3969 58.0547 38.4686C58.1274 38.5403 58.1847 38.6261 58.2231 38.7208C58.3333 38.8891 58.3998 39.0823 58.4165 39.2828C58.199 39.8151 57.8342 40.2742 57.3649 40.6064C56.1562 41.6338 55.7029 42.1172 55.6969 42.3046C55.6969 42.359 55.8299 42.4073 55.9568 42.4557C56.5611 42.7095 56.682 42.9996 57.0748 43.9968C57.2119 43.9552 57.3511 43.9209 57.4918 43.894C57.856 43.7692 58.242 43.7209 58.6258 43.7521C59.0095 43.7833 59.3826 43.8933 59.7219 44.0753C59.9576 44.2022 59.9757 44.2566 59.9757 44.4017C59.9656 44.5109 59.9259 44.6152 59.8609 44.7036C59.796 44.792 59.7082 44.861 59.6071 44.9033L59.5285 44.9637ZM86.7183 39.9416C87.1386 39.9179 87.5573 40.0121 87.927 40.2135C88.056 40.2844 88.1637 40.3885 88.2391 40.5149C88.3146 40.6413 88.3549 40.7855 88.3561 40.9327V41.1261L88.1445 42.3046L88.344 42.226V42.0931C88.9906 42.226 89.178 42.4134 89.178 42.6551C89.1863 42.817 89.1346 42.9762 89.0329 43.1023L88.0539 43.5133C87.9632 44.6857 88.0539 45.006 87.9451 45.979C88.291 45.7499 88.6148 45.4889 88.9121 45.1994C88.7866 45.8585 88.5181 46.482 88.1255 47.0261C87.7329 47.5701 87.2257 48.0214 86.6397 48.3481L86.271 48.5173C86.1531 48.5727 86.0295 48.6153 85.9024 48.6442C85.5519 48.6442 85.3524 48.1124 85.298 47.6954C85.9423 47.45 86.5199 47.0567 86.9842 46.5471V45.1692L87.0204 43.8759L86.0414 44.3171L85.8722 43.4287C85.8722 43.2353 86.1864 43.1265 86.688 42.915L87.0507 42.7155C87.1033 42.3574 87.1276 41.9957 87.1232 41.6338C87.1232 40.9508 87.1232 40.3163 86.6759 39.9416H86.7183ZM90.1751 42.5403C90.3999 43.105 90.5621 43.6928 90.6586 44.2929C90.674 44.5243 90.674 44.7565 90.6586 44.9879C90.6586 45.0967 90.6586 45.2538 90.6586 45.3022C90.6385 45.6353 90.5941 45.9666 90.5257 46.2933L90.0482 48.4388C89.8747 48.4061 89.7093 48.3395 89.5615 48.2428C89.4137 48.1461 89.2865 48.0212 89.1871 47.8752C89.0877 47.7292 89.0181 47.5651 88.9824 47.3921C88.9466 47.2192 88.9453 47.0409 88.9785 46.8674C89.6765 45.6587 90.0802 44.3026 90.157 42.9089L90.1751 42.5403ZM91.0696 41.9359L93.5656 40.8118L93.4326 39.6031L93.1667 36.9984C93.3769 37.1044 93.5609 37.256 93.7052 37.4421C93.8495 37.6282 93.9504 37.8441 94.0007 38.0741C94.0739 38.3606 94.1125 38.6548 94.1155 38.9504C94.1152 39.357 94.1598 39.7624 94.2485 40.1591C94.2645 40.2795 94.2887 40.3986 94.321 40.5157C94.582 40.3756 94.8669 40.2854 95.161 40.2498C95.2103 40.2441 95.2602 40.2496 95.3071 40.2657C95.354 40.2819 95.3966 40.3083 95.432 40.3431C95.4673 40.3778 95.4944 40.4201 95.5113 40.4667C95.5283 40.5133 95.5345 40.5631 95.5297 40.6124V40.6547C95.2959 41.1441 94.9881 41.5946 94.6171 41.9903C94.8338 43.0652 95.1893 44.1074 95.6747 45.0906C95.8418 44.8174 95.9757 44.5253 96.0736 44.2204C96.2199 43.7598 96.2834 43.2769 96.261 42.7941C96.6296 43.0358 97.0768 43.3562 97.0648 43.7429C97.0066 44.1123 96.8988 44.4721 96.7444 44.8126L96.1401 46.0213C96.4491 46.7014 96.8677 47.3261 97.379 47.8707C97.819 48.3721 98.3528 48.7827 98.9503 49.0794C99.0531 48.9887 99.0712 48.7591 99.0833 48.6684V48.0278C99.3992 48.5216 99.5862 49.0868 99.6272 49.6716C99.6272 49.7562 99.6272 49.8771 99.6272 49.9859C99.6248 50.0395 99.6146 50.0924 99.597 50.143C99.55 50.2734 99.4693 50.3891 99.3632 50.4782C99.257 50.5674 99.1292 50.6269 98.9926 50.6507C98.805 50.628 98.6283 50.5502 98.485 50.4271C97.8268 49.952 97.2371 49.3887 96.7324 48.753C96.2338 48.1348 95.8042 47.464 95.4511 46.7526C95.2698 46.9533 95.0671 47.1336 94.8468 47.2905L94.6292 47.3872L94.3029 47.4597C94.3693 47.3388 94.7743 46.6136 95.1369 46.0032C94.6127 44.9498 94.1898 43.849 93.8738 42.7155C93.7469 42.8848 93.2694 43.6765 93.0096 43.9242C93.9463 43.9242 94.2183 44.7341 94.315 45.3566C94.315 45.3566 94.315 45.417 94.315 45.4351V45.7192C94.2938 46.2047 94.1558 46.6779 93.9128 47.0987C93.6698 47.5196 93.3288 47.8756 92.9189 48.1366L91.1542 47.7981C92.5321 47.4114 93.0821 47.0064 93.4266 45.6466C93.4431 45.494 93.4431 45.34 93.4266 45.1873C93.4152 45.089 93.3949 44.9919 93.3661 44.8973C93.3347 44.7417 93.2556 44.5998 93.1396 44.4915C93.0237 44.3831 92.8768 44.3137 92.7195 44.2929C92.4777 44.4742 92.2602 44.7824 91.8613 45.1813C91.7207 45.3306 91.5328 45.4267 91.3295 45.4533C91.1663 45.4533 91.0817 45.2296 91.0817 44.7824V44.4379C91.6237 44.0182 92.1329 43.5575 92.6046 43.06C92.9574 42.7182 93.2771 42.3438 93.5595 41.942C93.5905 41.883 93.6129 41.8199 93.626 41.7546C93.626 41.7063 93.626 41.6458 93.5353 41.6458C92.8791 41.8162 92.2489 42.0744 91.6618 42.4134L91.2811 42.6128C91.124 42.6128 91.0152 42.3046 91.0152 42.1656L91.0817 41.9359H91.0696ZM95.7896 39.7542C96.3528 39.6841 96.8799 39.4396 97.2972 39.0548C97.7144 38.6701 98.0009 38.1645 98.1163 37.6088C97.2821 38.3366 96.2677 38.8271 95.1792 39.029C95.1554 39.1232 95.1546 39.2217 95.177 39.3162C95.1993 39.4107 95.2441 39.4984 95.3075 39.5719C95.371 39.6455 95.4512 39.7026 95.5414 39.7385C95.6317 39.7745 95.7292 39.7882 95.8258 39.7784L95.7896 39.7542ZM35.8742 59.8308H35.6022C35.5108 59.7065 35.4413 59.5675 35.3967 59.4198C35.3424 59.2687 35.294 59.1237 35.2457 58.9726C35.21 58.8247 35.1269 58.6927 35.009 58.5966C34.8911 58.5005 34.745 58.4458 34.593 58.4408H34.4781H34.1034H33.7166H33.5051H33.3057H33.1788H33.0579C32.9189 58.6765 32.7859 58.9122 32.659 59.1539C32.5353 59.3925 32.3897 59.6192 32.2239 59.8308C32.1333 59.8368 32.0425 59.8368 31.9519 59.8308C31.8713 59.832 31.7919 59.8111 31.7223 59.7703C32.1756 58.8699 32.6469 57.9573 33.1304 57.081C33.1727 57.0205 33.2271 56.9238 33.2996 56.7969C33.3722 56.67 33.3722 56.6338 33.4386 56.5008C33.5051 56.3678 33.5595 56.2409 33.626 56.114C33.6932 55.9853 33.7459 55.8495 33.7831 55.7091C33.8044 55.6835 33.8312 55.663 33.8616 55.6494C33.892 55.6358 33.9251 55.6293 33.9584 55.6305C34.0126 55.6242 34.0674 55.6242 34.1216 55.6305H34.2787C34.3452 55.7454 34.4298 55.9085 34.5507 56.1321L34.6957 56.4948C34.8589 56.9057 35.1006 57.4496 35.4149 58.1325C35.6747 58.6644 35.9225 59.2083 36.1643 59.7522C36.075 59.7833 35.9808 59.7977 35.8863 59.7945L35.8742 59.8308ZM34.4419 57.3227L34.3452 57.0508L34.0551 56.4887C34.0484 56.4859 34.0412 56.4844 34.0339 56.4844C34.0267 56.4844 34.0195 56.4859 34.0128 56.4887C33.9972 56.4826 33.98 56.4826 33.9644 56.4887C33.9282 56.5673 33.8073 56.7848 33.6018 57.1475C33.4671 57.36 33.3729 57.5956 33.3238 57.8425C33.4689 57.8425 33.6623 57.8425 33.9282 57.8425H34.5325H34.7017C34.6292 57.6612 34.5507 57.4798 34.4781 57.3046L34.4419 57.3227ZM41.537 58.199C41.537 58.4529 41.537 58.5979 41.537 58.6342C41.5217 58.7179 41.5015 58.8006 41.4765 58.8819C41.4456 59.0507 41.3802 59.2113 41.2846 59.3537C41.1889 59.4962 41.065 59.6174 40.9205 59.7099C40.4866 59.9064 40.0124 59.9975 39.5366 59.9758C39.3112 59.9928 39.085 59.9928 38.8597 59.9758C38.7393 59.9448 38.6234 59.898 38.5152 59.8368C38.4081 59.7838 38.3085 59.7167 38.2191 59.6374C38.1587 59.5723 38.1079 59.4991 38.068 59.4198C37.7988 58.8807 37.6738 58.281 37.7054 57.6793C37.7054 57.5524 37.7054 57.3529 37.7054 57.0749C37.7054 56.7969 37.7054 56.6156 37.7054 56.4706C37.7074 56.2424 37.6952 56.0143 37.6691 55.7877C37.7382 55.7396 37.8206 55.7142 37.9048 55.7151C37.9974 55.7096 38.0902 55.7096 38.1828 55.7151C38.213 55.9931 38.2372 56.4585 38.2553 57.1172C38.2553 57.2744 38.2553 57.504 38.2553 57.8122C38.2553 57.8666 38.2553 57.9573 38.2916 58.0721V58.5193C38.3007 58.669 38.3509 58.8133 38.4366 58.9363C38.5926 59.1279 38.8035 59.2671 39.041 59.3352C39.2647 59.4217 39.5022 59.4667 39.742 59.4682C40.0073 59.4843 40.2726 59.4367 40.5156 59.3292C40.5934 59.2827 40.6629 59.2234 40.7211 59.1539C40.8891 58.9379 40.99 58.6773 41.0112 58.4045L41.0535 57.5826C41.0535 57.4134 41.0535 57.2925 41.0535 57.22C41.0535 57.1475 41.0535 56.6156 40.9568 55.7454C41.0671 55.713 41.1805 55.6928 41.2952 55.6849C41.3373 55.6792 41.38 55.6792 41.4221 55.6849C41.4808 56.1499 41.507 56.6184 41.5007 57.087C41.5007 57.2079 41.5007 57.3831 41.5007 57.6188C41.5007 57.8545 41.5007 58.0298 41.5007 58.1507L41.537 58.199ZM47.097 56.0415H45.7795L45.7432 56.0959V56.5673C45.7432 57.6551 45.7432 58.2957 45.7432 58.4891C45.7495 58.5575 45.7495 58.6262 45.7432 58.6946C45.7432 58.7671 45.7432 58.8396 45.7432 58.9122C45.7366 59.035 45.7366 59.158 45.7432 59.2808C45.7432 59.45 45.7432 59.5709 45.7432 59.6495C45.7432 59.728 45.6707 59.8187 45.5136 59.8187H45.3746H45.2295H45.1389C45.1389 59.2143 45.1812 58.61 45.1812 58.0056C45.1812 57.4013 45.1812 57.0266 45.1812 56.7063C45.1812 56.5854 45.1812 56.4162 45.1449 56.1805C45.1449 56.0898 45.0422 56.0415 44.9153 56.0415H44.8005H44.6796H44.5285C44.4302 56.0294 44.3307 56.0294 44.2324 56.0415C43.9362 56.0415 43.7066 56.0415 43.5555 56.0415V55.7816C43.5555 55.6124 43.6159 55.5278 43.7368 55.5338C45.5498 55.5822 46.402 55.6124 46.2751 55.6124H47.1937C47.1937 55.7212 47.236 55.8239 47.2541 55.9327C47.256 55.965 47.251 55.9972 47.2396 56.0274C47.2281 56.0576 47.2104 56.0851 47.1876 56.108L47.097 56.0415ZM53.0861 59.6193V59.8308H52.5966V58.0177C52.5904 57.9924 52.5784 57.9689 52.5617 57.949C52.5449 57.9291 52.5238 57.9133 52.4999 57.9029H51.5692C50.7473 57.9029 50.1973 57.9029 49.9254 57.9029L49.7924 58.0177C49.7924 58.2051 49.7924 58.4468 49.7924 58.755C49.7924 59.0632 49.7924 59.2446 49.7924 59.4863C49.7803 59.5806 49.7803 59.676 49.7924 59.7703C49.73 59.813 49.6564 59.8361 49.5809 59.8368C49.4661 59.826 49.3527 59.8037 49.2424 59.7703L49.1941 59.7159V59.0572L49.2485 55.6607H49.3331H49.4842H49.6413C49.6871 55.6504 49.7346 55.6504 49.7803 55.6607V57.2321C49.7944 57.2537 49.813 57.272 49.835 57.2855C49.8569 57.2991 49.8816 57.3077 49.9072 57.3106H50.0825H50.2819H51.4241C51.7505 57.3106 52.0708 57.3106 52.3911 57.3106L52.4455 57.2502C52.4547 57.1436 52.4547 57.0365 52.4455 56.9299C52.4455 56.8392 52.4455 56.7063 52.4455 56.525C52.4455 56.3437 52.4455 56.253 52.4455 56.114C52.4427 55.9611 52.461 55.8086 52.4999 55.6607C52.6189 55.6216 52.7433 55.6012 52.8685 55.6003H53.0317C53.0736 55.6781 53.0924 55.7661 53.0861 55.8541C53.0861 55.9206 53.0861 56.0113 53.0861 56.1321C53.0861 56.253 53.0861 56.3497 53.0861 56.4162C53.0861 56.7627 53.074 57.2824 53.0498 57.9754C53.0498 58.4891 53.0498 59.0089 53.0136 59.5286L53.0861 59.6193ZM58.7187 59.589C58.7154 59.6151 58.7154 59.6415 58.7187 59.6676L58.6764 59.7159H58.072H56.9902H55.9084C55.6063 59.7159 55.3041 59.7159 54.9838 59.7462C54.9529 59.638 54.9367 59.5262 54.9354 59.4138C54.942 59.2681 54.9561 59.1229 54.9777 58.9786C54.9993 58.8344 55.0134 58.6892 55.02 58.5435C55.02 58.467 55.02 58.3521 55.02 58.199C55.014 58.0863 55.014 57.9733 55.02 57.8606C55.02 57.7236 55.02 57.5222 55.02 57.2562C55.02 56.9903 55.02 56.7788 55.02 56.6217C55.0214 56.4196 55.0092 56.2177 54.9838 56.0173C54.9838 55.7877 54.9354 55.697 54.9354 55.7454C54.9354 55.6668 54.9838 55.6245 55.0684 55.6245H55.292C55.3335 55.6275 55.3746 55.6145 55.4068 55.5882C55.7634 55.6347 56.123 55.6549 56.4826 55.6487H57.238H57.9995H58.211H58.4225H58.4648C58.4684 55.6385 58.4749 55.6297 58.4835 55.6232C58.4921 55.6167 58.5024 55.613 58.5132 55.6124C58.5266 55.611 58.5402 55.6137 58.5521 55.6201C58.564 55.6266 58.5736 55.6366 58.5797 55.6487L58.5192 56.0657C58.0756 56.112 57.6296 56.1322 57.1836 56.1261H55.7029L55.5942 56.2409C55.6031 56.3152 55.6031 56.3903 55.5942 56.4645C55.5897 56.5657 55.5796 56.6666 55.5639 56.7667C55.5547 56.8733 55.5547 56.9804 55.5639 57.087V57.1777L55.6425 57.2562C55.7954 57.2887 55.9516 57.3029 56.1079 57.2985H56.5974C56.7715 57.3108 56.9426 57.3495 57.105 57.4134V57.7639C56.948 57.7729 56.7907 57.7729 56.6336 57.7639C56.2963 57.7523 55.9586 57.7705 55.6244 57.8183L55.5881 57.8606V59.1539L55.6848 59.2446H56.1743C56.404 59.2446 56.7424 59.2446 57.1957 59.2446H58.211H58.7126C58.739 59.2817 58.7537 59.3259 58.7549 59.3715C58.757 59.4117 58.757 59.4521 58.7549 59.4923C58.752 59.5285 58.752 59.5649 58.7549 59.6011L58.7187 59.589ZM64.2485 59.8912H63.9463C63.6985 59.6011 63.2876 59.0632 62.7376 58.2715C62.3479 57.7159 61.924 57.1851 61.4685 56.6821C61.4229 56.6598 61.3738 56.6455 61.3234 56.6398L61.263 56.7184C61.2667 56.7868 61.2667 56.8554 61.263 56.9238C61.2718 57.0829 61.2718 57.2423 61.263 57.4013C61.254 57.5603 61.254 57.7197 61.263 57.8787C61.263 58.8275 61.263 59.4379 61.263 59.6918C61.2663 59.7199 61.2663 59.7483 61.263 59.7764C61.2658 59.7985 61.2658 59.8208 61.263 59.8429H60.713C60.713 59.5226 60.713 59.1962 60.713 58.8699C60.713 58.6825 60.713 58.3924 60.713 58.0056C60.713 57.7155 60.713 57.4013 60.713 57.1354C60.7098 56.6327 60.736 56.1302 60.7916 55.6305C60.8499 55.6354 60.9085 55.6354 60.9668 55.6305H61.1361C61.1801 55.6238 61.225 55.6238 61.269 55.6305C61.3833 55.6953 61.4822 55.7839 61.5591 55.8904L61.8069 56.2288L61.9822 56.4162L62.1574 56.6398C62.5502 57.0931 63.1425 57.776 63.9221 58.6885H63.9705C64.0249 58.1205 64.049 57.1172 64.049 55.6668C64.1354 55.6409 64.2248 55.6267 64.315 55.6245C64.3975 55.6237 64.4787 55.6445 64.5507 55.6849C64.5507 55.9388 64.5507 56.3255 64.5507 56.8332C64.5507 57.3408 64.5507 57.7276 64.5507 57.9815C64.5507 58.2353 64.5507 58.5858 64.5507 58.7248C64.5507 59.0391 64.5204 59.2566 64.5204 59.3836C64.5148 59.5485 64.5331 59.7134 64.5748 59.8731C64.4919 59.9041 64.4032 59.9164 64.315 59.9093L64.2485 59.8912ZM70.0986 56.0475H68.7449L68.7086 56.1019V56.5733C68.7086 57.6612 68.7086 58.3018 68.7086 58.4952C68.7086 58.4952 68.7086 58.5919 68.7086 58.7006C68.7086 58.8094 68.7086 58.8457 68.7086 58.9182C68.7086 58.9907 68.7086 59.1237 68.7086 59.2869C68.7148 59.4097 68.7148 59.5327 68.7086 59.6555C68.7086 59.7703 68.63 59.8247 68.4789 59.8247H68.3399H68.1949H68.0982C68.0982 59.2204 68.1405 58.616 68.1405 58.0117C68.1405 57.4073 68.1405 57.0326 68.1405 56.7123C68.1405 56.5914 68.1405 56.4222 68.1042 56.1865C68.1042 56.0959 68.0015 56.0475 67.8685 56.0475H67.7537H67.6389H67.4878C67.3895 56.0354 67.29 56.0354 67.1917 56.0475C66.8895 56.0475 66.6659 56.0475 66.5087 56.0475V55.7816C66.5087 55.6124 66.5692 55.5278 66.6901 55.5338C68.5031 55.5822 69.3552 55.6124 69.2344 55.6124H70.153C70.153 55.7212 70.1953 55.8239 70.2074 55.9327C70.2105 55.9651 70.2061 55.9977 70.1946 56.0281C70.1831 56.0585 70.1647 56.0858 70.1409 56.108L70.0986 56.0475ZM72.6308 59.8308C72.5908 59.8661 72.5392 59.8854 72.4858 59.8852C72.4356 59.8915 72.3849 59.8915 72.3347 59.8852L72.2138 59.8308H72.1353L72.099 59.7885C72.099 59.4077 72.1353 58.9545 72.1353 58.4226C72.1353 58.199 72.1353 57.8727 72.1353 57.4315C72.1353 57.1051 72.1353 56.7788 72.1353 56.4525C72.1253 56.1783 72.1621 55.9044 72.244 55.6426C72.3067 55.677 72.3783 55.6917 72.4495 55.6849C72.5259 55.6774 72.6028 55.6774 72.6792 55.6849C72.6792 56.4041 72.6792 56.948 72.6792 57.3046V58.1809C72.6792 58.5375 72.6792 59.0753 72.6792 59.7885L72.6308 59.8308ZM78.2392 55.7574C78.3215 55.7814 78.3977 55.8226 78.4628 55.8783L78.6804 56.0294L78.8254 56.1201C78.8554 56.1457 78.8799 56.1771 78.8975 56.2124C78.9152 56.2477 78.9256 56.2862 78.9282 56.3255C78.9344 56.3554 78.9344 56.3863 78.9282 56.4162L78.8496 56.5008C78.7227 56.6338 78.632 56.7002 78.5656 56.7002H78.5172C78.209 56.5068 77.9914 56.3799 77.8585 56.3134C77.6334 56.1986 77.3858 56.1346 77.1332 56.1261C76.6254 56.1191 76.1321 56.295 75.7432 56.6217C75.6668 56.686 75.596 56.7568 75.5317 56.8332L75.4531 56.9843C75.3146 57.2884 75.2386 57.6172 75.2295 57.9512C75.2217 58.2363 75.3065 58.5162 75.4713 58.749C75.5705 58.8074 75.6585 58.8832 75.7312 58.9726C75.8005 59.0651 75.8892 59.1414 75.991 59.1962C76.2961 59.3436 76.6313 59.418 76.9701 59.4138C77.5401 59.4217 78.0967 59.2411 78.5535 58.9001H78.5958C78.6277 58.9063 78.6605 58.9063 78.6925 58.9001C78.7222 58.8924 78.7534 58.8924 78.7831 58.9001C78.7996 58.8988 78.8161 58.9028 78.8303 58.9115C78.8444 58.9202 78.8554 58.9331 78.8617 58.9484C78.9115 58.9861 78.951 59.0358 78.9764 59.0929C79.0017 59.1499 79.0122 59.2125 79.0067 59.2748C78.5672 59.6101 78.0631 59.8508 77.5261 59.9819C77.4447 60.0037 77.3619 60.0199 77.2783 60.0302C76.9415 60.0593 76.6023 60.0208 76.2806 59.9171C75.9589 59.8133 75.6611 59.6463 75.4048 59.4259C75.2848 59.2996 75.1831 59.1572 75.1026 59.0028C74.9697 58.7852 74.879 58.6402 74.8246 58.5677C74.7523 58.3493 74.7156 58.1208 74.7158 57.8908C74.7223 57.367 74.8866 56.8573 75.1872 56.4283C75.2401 56.3426 75.303 56.2634 75.3746 56.1926C75.4495 56.124 75.5327 56.0651 75.6224 56.0173C76.1018 55.7196 76.6535 55.5587 77.2179 55.552C77.4799 55.5462 77.7406 55.5913 77.9854 55.6849C78.0829 55.7101 78.1765 55.7488 78.2634 55.7998L78.2392 55.7574ZM88.5797 59.2264C88.5797 59.2989 88.5797 59.4077 88.5797 59.5528V59.8791C88.524 59.9084 88.461 59.921 88.3984 59.9154C88.2867 59.9113 88.1764 59.8889 88.072 59.8489V59.7764C88.0697 59.7583 88.0697 59.74 88.072 59.722V59.2869C88.072 59.1116 88.072 58.8517 88.072 58.5072C88.072 58.2534 88.072 57.9935 88.072 57.7397C88.072 57.4859 88.072 57.2804 88.072 57.0568C88.072 57.0205 88.0418 57.0024 88.0055 57.0024C87.8847 57.226 87.6913 57.5584 87.4012 57.9935C87.4012 57.9935 87.3468 58.0661 87.2984 58.1265L87.238 58.2776C87.1776 58.4025 87.0567 58.6039 86.8754 58.8819C86.7432 59.0741 86.626 59.2761 86.5249 59.4863C86.4355 59.3709 86.3604 59.245 86.3013 59.1116C86.2408 58.9786 86.1864 58.8396 86.126 58.7067C85.869 58.1779 85.5699 57.6706 85.2315 57.1898C85.1582 57.1664 85.0931 57.1223 85.0442 57.0628C85.0384 57.0989 85.0384 57.1356 85.0442 57.1716C85.0408 57.236 85.0408 57.3006 85.0442 57.365C85.0483 57.4274 85.0483 57.49 85.0442 57.5524L84.9838 59.7643C84.906 59.7998 84.8215 59.8183 84.736 59.8187C84.6355 59.8276 84.5343 59.8276 84.4338 59.8187C84.3856 59.4176 84.3634 59.0139 84.3673 58.61C84.3673 58.3743 84.3673 58.0056 84.3673 57.5342C84.3673 57.0628 84.3673 56.6942 84.3673 56.4525C84.3673 56.1019 84.3673 55.8481 84.3673 55.6607H84.8689C84.8991 55.661 84.9287 55.6695 84.9543 55.6856C84.9799 55.7016 85.0006 55.7243 85.014 55.7514C85.0458 55.8059 85.0741 55.8625 85.0986 55.9206C85.1381 56.0037 85.1825 56.0845 85.2315 56.1624C85.3585 56.3678 85.5519 56.7305 85.8359 57.2502C86.1199 57.7699 86.2952 58.0782 86.4403 58.332C86.5249 58.332 86.6276 58.193 86.7424 57.9815C86.8029 57.8787 87.0265 57.504 87.4193 56.8695C87.6497 56.4984 87.8517 56.1105 88.0237 55.7091C88.0485 55.683 88.0786 55.6626 88.1119 55.649C88.1452 55.6355 88.1811 55.6292 88.217 55.6305H88.3621H88.5132H88.5736C88.6028 55.8793 88.6169 56.1295 88.6159 56.3799C88.6159 56.6881 88.6159 57.1595 88.6159 57.7881C88.6159 58.4166 88.6159 58.8819 88.6159 59.1962L88.5797 59.2264ZM94.4721 59.8006H94.1941C94.1073 59.6744 94.0401 59.5358 93.9946 59.3896C93.9403 59.2385 93.8919 59.0935 93.8436 58.9424C93.8079 58.7945 93.7248 58.6624 93.6069 58.5664C93.489 58.4703 93.3429 58.4156 93.1909 58.4105H93.076H92.6953H92.3145H92.103H91.9036H91.7767H91.6558C91.5108 58.6462 91.3778 58.8819 91.2569 59.1237C91.1339 59.3665 90.9882 59.5972 90.8218 59.8126C90.7312 59.8186 90.6404 59.8186 90.5498 59.8126C90.4564 59.8189 90.3634 59.7956 90.2839 59.7462C90.5861 59.1418 91.0575 58.2474 91.6981 57.0568L91.8673 56.7728C91.8673 56.7063 91.9399 56.6096 92.0003 56.4766C92.0607 56.3437 92.1272 56.2168 92.1937 56.0959C92.2584 55.964 92.311 55.8264 92.3508 55.6849C92.3718 55.6589 92.3986 55.6383 92.429 55.6246C92.4595 55.6109 92.4927 55.6047 92.5261 55.6064C92.5803 55.6 92.635 55.6 92.6893 55.6064H92.8403C92.9008 55.7212 92.9914 55.8844 93.1063 56.108L93.2513 56.4706C93.4145 56.8815 93.6562 57.4255 93.9765 58.1084C94.2364 58.6402 94.4842 59.1841 94.7199 59.728C94.6329 59.7601 94.5405 59.7745 94.4479 59.7703L94.4721 59.8006ZM92.9975 57.2985L92.9068 57.0266C92.8061 56.8372 92.7094 56.6499 92.6167 56.4645C92.6167 56.4645 92.5865 56.4645 92.5744 56.4645C92.5568 56.4585 92.5377 56.4585 92.52 56.4645C92.4898 56.5431 92.3689 56.7607 92.1574 57.1233C92.0278 57.3378 91.9359 57.5728 91.8855 57.8183C92.0305 57.8183 92.2239 57.8183 92.4898 57.8183H93.0942H93.2573C93.1848 57.637 93.1123 57.4557 93.0337 57.2804L92.9975 57.2985ZM99.9354 55.7091C100.018 55.7331 100.094 55.7743 100.159 55.83L100.377 55.9811L100.522 56.0717C100.552 56.0974 100.576 56.1288 100.594 56.1641C100.611 56.1994 100.622 56.2378 100.624 56.2772C100.631 56.3071 100.631 56.3379 100.624 56.3678L100.546 56.4525C100.419 56.5854 100.322 56.6519 100.262 56.6519H100.213C100.001 56.5126 99.7813 56.3855 99.5547 56.2711C99.3307 56.1526 99.0827 56.0865 98.8295 56.0778C98.3216 56.0707 97.8283 56.2466 97.4395 56.5733C97.363 56.6376 97.2923 56.7084 97.2279 56.7848L97.1494 56.9359C97.0108 57.24 96.9348 57.5689 96.9258 57.9029C96.9186 58.187 97.0011 58.466 97.1614 58.7006C97.2628 58.7586 97.3529 58.8344 97.4274 58.9242C97.461 59.0361 97.5187 59.1393 97.5966 59.2264C97.8998 59.3729 98.2328 59.4473 98.5696 59.444C99.1416 59.4528 99.7004 59.2722 100.159 58.9303H100.201C100.233 58.9366 100.266 58.9366 100.298 58.9303C100.328 58.9226 100.359 58.9226 100.389 58.9303C100.405 58.929 100.422 58.933 100.436 58.9417C100.45 58.9504 100.461 58.9633 100.467 58.9786C100.508 59.0076 100.542 59.0444 100.568 59.087C100.594 59.1296 100.611 59.177 100.618 59.2264C100.179 59.5617 99.6747 59.8025 99.1377 59.9335C99.0563 59.9554 98.9735 59.9715 98.8899 59.9819C98.5531 60.0116 98.2137 59.9735 97.8919 59.8697C97.57 59.7659 97.2723 59.5985 97.0164 59.3775C96.8964 59.2513 96.7947 59.1089 96.7142 58.9545C96.5813 58.7369 96.4906 58.5919 96.4362 58.5193C96.3639 58.301 96.3272 58.0725 96.3274 57.8425C96.3339 57.3186 96.4982 56.8089 96.7988 56.3799C96.8577 56.3156 96.9224 56.2569 96.9922 56.2047C97.0687 56.138 97.1517 56.0793 97.24 56.0294C97.7195 55.7317 98.2712 55.5708 98.8355 55.5641C99.0975 55.5587 99.3581 55.6039 99.603 55.697C99.7006 55.7222 99.7941 55.7609 99.881 55.8118L99.9354 55.7091ZM106.432 59.8308H106.154C106.067 59.7046 106 59.566 105.955 59.4198C105.9 59.2748 105.852 59.1237 105.804 58.9726C105.659 58.616 105.441 58.4408 105.151 58.4408H105.036C104.911 58.4408 104.784 58.4408 104.655 58.4408H104.275H104.063H103.864H103.737H103.616C103.537 58.5616 103.404 58.7973 103.217 59.1539C103.094 59.3967 102.948 59.6274 102.782 59.8429C102.691 59.8489 102.601 59.8489 102.51 59.8429C102.417 59.8491 102.324 59.8258 102.244 59.7764C102.546 59.172 103.018 58.2776 103.658 57.087L103.827 56.803C103.93 56.5733 104.039 56.3497 104.154 56.1261C104.219 55.9942 104.271 55.8566 104.311 55.7151C104.332 55.6891 104.359 55.6685 104.389 55.6548C104.42 55.6412 104.453 55.6349 104.486 55.6366C104.54 55.6302 104.595 55.6302 104.649 55.6366H104.8C104.861 55.7514 104.952 55.9146 105.066 56.1382L105.211 56.5008C105.375 56.9118 105.616 57.4557 105.937 58.1386C106.197 58.6704 106.444 59.2143 106.68 59.7582C106.592 59.7874 106.5 59.8017 106.408 59.8006L106.432 59.8308ZM104.958 57.3288L104.867 57.0568C104.766 56.8674 104.67 56.6801 104.577 56.4948C104.577 56.4948 104.547 56.4948 104.535 56.4948C104.517 56.4888 104.498 56.4888 104.48 56.4948C104.45 56.5733 104.329 56.7909 104.118 57.1535C103.988 57.368 103.896 57.603 103.846 57.8485C103.991 57.8485 104.184 57.8485 104.45 57.8485H105.054H105.217C105.145 57.6672 105.072 57.4859 104.994 57.3106L104.958 57.3288ZM112.101 58.199C112.101 58.4529 112.101 58.5979 112.101 58.6342C112.089 58.718 112.071 58.8008 112.047 58.8819C112.016 59.0501 111.952 59.2102 111.857 59.3526C111.762 59.4949 111.64 59.6165 111.497 59.7099C111.063 59.9064 110.589 59.9975 110.113 59.9758C109.887 59.9928 109.661 59.9928 109.436 59.9758C109.311 59.9439 109.191 59.8951 109.079 59.8308C108.972 59.7777 108.873 59.7107 108.783 59.6313C108.722 59.5653 108.669 59.4923 108.626 59.4138C108.362 58.8731 108.239 58.2742 108.269 57.6732C108.269 57.5463 108.269 57.3469 108.269 57.0689C108.269 56.7909 108.269 56.6096 108.269 56.4645C108.272 56.2344 108.259 56.0043 108.233 55.7756C108.305 55.7281 108.389 55.7028 108.475 55.7031C108.565 55.6976 108.656 55.6976 108.747 55.7031C108.783 55.9811 108.807 56.4464 108.819 57.1051C108.819 57.2623 108.819 57.4919 108.819 57.8002C108.819 57.8545 108.819 57.9452 108.856 58.06V58.5072C108.865 58.6569 108.915 58.8012 109.001 58.9242C109.16 59.112 109.37 59.2504 109.605 59.3231C109.828 59.4114 110.066 59.4565 110.306 59.4561C110.573 59.4721 110.84 59.4244 111.086 59.3171C111.162 59.2704 111.229 59.2111 111.285 59.1418C111.459 58.9292 111.561 58.6667 111.575 58.3924L111.618 57.5705C111.618 57.4013 111.618 57.2804 111.618 57.2079C111.618 57.081 111.581 56.6035 111.521 55.7333C111.629 55.7012 111.741 55.6809 111.853 55.6728C111.897 55.6671 111.942 55.6671 111.986 55.6728C112.045 56.1378 112.071 56.6063 112.065 57.0749C112.065 57.1958 112.065 57.3711 112.065 57.6068C112.065 57.8425 112.065 58.0238 112.065 58.1386" fill="white"/>
</g>
<defs>
<clipPath id="clip0_73_252">
<rect width="144.857" height="60" fill="white" transform="translate(0.900391)"/>
</clipPath>
</defs>
</svg>
