<svg width="84" height="26" viewBox="0 0 84 26" fill="none" xmlns="http://www.w3.org/2000/svg">
<path fill-rule="evenodd" clip-rule="evenodd" d="M51.8002 19.6601C46.9672 23.2331 39.9382 25.1372 33.8752 25.1372C25.7879 25.1774 17.9761 22.2008 11.9662 16.7891C11.5272 16.3791 11.9072 15.8222 12.4662 16.1452C18.2861 19.4944 24.8022 21.4514 31.5045 21.8629C38.2067 22.2744 44.9132 21.1293 51.0992 18.5171C51.9172 18.1961 52.5912 19.0781 51.8002 19.6601Z" fill="#222222"/>
<path fill-rule="evenodd" clip-rule="evenodd" d="M53.8211 17.3461C53.2061 16.5551 49.7211 16.9651 48.1681 17.1701C47.6991 17.2291 47.6111 16.819 48.0511 16.526C50.8341 14.564 55.3731 15.1491 55.9011 15.7941C56.4291 16.4391 55.7551 21.0081 53.1481 23.1751C52.7381 23.4971 52.3571 23.321 52.5331 22.882C53.1181 21.418 54.4361 18.1661 53.8211 17.3461Z" fill="#222222"/>
<path fill-rule="evenodd" clip-rule="evenodd" d="M48.2561 2.76006V0.860066C48.2528 0.797604 48.2627 0.73515 48.285 0.676747C48.3074 0.618345 48.3419 0.565306 48.3861 0.521077C48.4303 0.476847 48.4834 0.4424 48.5418 0.420003C48.6002 0.397606 48.6626 0.387759 48.7251 0.391072H57.2161C57.3444 0.387821 57.4687 0.435193 57.5623 0.522969C57.6559 0.610746 57.7111 0.731859 57.7161 0.860066V2.47106C57.7161 2.73506 57.4821 3.08607 57.0721 3.67107L52.6791 9.93908C54.3532 9.84889 56.0215 10.2014 57.5161 10.961C57.6458 11.0353 57.7543 11.1416 57.8312 11.2698C57.908 11.3979 57.9507 11.5437 57.9551 11.6931V13.7141C57.9551 14.0071 57.6621 14.3291 57.3401 14.1531C55.9542 13.4357 54.4156 13.0638 52.855 13.0688C51.2945 13.0739 49.7583 13.4558 48.3771 14.1821C48.3072 14.2071 48.2323 14.2148 48.1587 14.2046C48.0852 14.1944 48.0152 14.1665 47.9548 14.1234C47.8944 14.0802 47.8453 14.0231 47.8117 13.9569C47.7782 13.8907 47.7611 13.8173 47.7621 13.7431V11.8071C47.7333 11.3544 47.8458 10.904 48.0841 10.5181L53.1841 3.22506H48.7611C48.6328 3.22831 48.5084 3.18094 48.4149 3.09316C48.3213 3.00538 48.266 2.88427 48.2611 2.75606L48.2561 2.76006ZM17.2971 14.5601H14.7161C14.6006 14.5485 14.4921 14.4992 14.4073 14.4199C14.3226 14.3406 14.2663 14.2355 14.2471 14.1211V0.886067C14.2521 0.75786 14.3073 0.636747 14.4009 0.54897C14.4945 0.461194 14.6188 0.413822 14.7471 0.417073H17.1471C17.2659 0.418689 17.3798 0.464569 17.4666 0.545766C17.5533 0.626963 17.6067 0.737627 17.6161 0.856068V2.58407H17.6751C17.9031 1.86975 18.3524 1.24642 18.9579 0.804128C19.5634 0.361833 20.2938 0.123463 21.0436 0.123463C21.7934 0.123463 22.5239 0.361833 23.1294 0.804128C23.7348 1.24642 24.184 1.86975 24.4121 2.58407C24.6691 1.84763 25.1539 1.21218 25.7964 0.769856C26.4388 0.327537 27.2054 0.10135 27.9851 0.124074C28.5639 0.112397 29.137 0.239257 29.6568 0.494099C30.1766 0.748941 30.6279 1.12437 30.9731 1.58907C31.7931 2.70207 31.6171 4.31307 31.6171 5.74807V14.1251C31.6121 14.2533 31.5569 14.3744 31.4633 14.4621C31.3697 14.5499 31.2454 14.5973 31.1171 14.5941H28.5691C28.4471 14.5867 28.332 14.5349 28.2456 14.4485C28.1592 14.3621 28.1075 14.247 28.1001 14.1251V7.09606C28.1394 6.26571 28.1196 5.43363 28.0411 4.60607C27.9874 4.25379 27.7975 3.93667 27.5122 3.72307C27.227 3.50947 26.8693 3.41647 26.5161 3.46407C26.1799 3.47377 25.8539 3.58153 25.5781 3.77413C25.3024 3.96672 25.0889 4.23574 24.9641 4.54805C24.7519 5.37967 24.6729 6.2397 24.7301 7.09606V14.1251C24.7252 14.2533 24.6699 14.3744 24.5763 14.4621C24.4827 14.5499 24.3584 14.5973 24.2301 14.5941H21.6531C21.5311 14.5867 21.416 14.5349 21.3296 14.4485C21.2432 14.3621 21.1915 14.247 21.1841 14.1251V7.09606C21.1841 5.63106 21.4181 3.43508 19.6021 3.43508C17.7571 3.43508 17.8151 5.54406 17.8151 7.09606V14.1251C17.7967 14.2503 17.7328 14.3643 17.6355 14.4453C17.5383 14.5263 17.4146 14.5686 17.2881 14.5641L17.2971 14.5601ZM65.0391 0.120076C68.8761 0.120076 70.9561 3.40007 70.9561 7.58907C70.9561 11.6311 68.6711 14.8531 65.0391 14.8531C61.2901 14.8531 59.2391 11.5731 59.2391 7.47207C59.2101 3.34207 61.2891 0.120076 65.0391 0.120076ZM65.0391 2.84407C63.1391 2.84407 63.0181 5.45106 63.0181 7.06206C63.0181 8.67306 62.9891 12.129 65.0101 12.129C67.0021 12.129 67.1191 9.34606 67.1191 7.64806C67.1551 6.46442 67.0269 5.28152 66.7381 4.13308C66.6581 3.74952 66.4417 3.40795 66.1291 3.17168C65.8166 2.93541 65.4289 2.82046 65.0381 2.84807L65.0391 2.84407ZM75.9051 14.5601H73.3281C73.2061 14.5527 73.091 14.5009 73.0046 14.4145C72.9182 14.3281 72.8665 14.213 72.8591 14.0911V0.827077C72.8753 0.705825 72.9349 0.594524 73.0268 0.513814C73.1187 0.433104 73.2368 0.388424 73.3591 0.388051H75.7591C75.8681 0.391695 75.973 0.430926 76.0577 0.499715C76.1423 0.568503 76.2022 0.663086 76.2281 0.769063V2.79006H76.2871C77.0191 0.974059 78.0151 0.12505 79.8021 0.12505C80.3967 0.0980362 80.988 0.227083 81.5172 0.499348C82.0465 0.771614 82.4953 1.17762 82.8191 1.67705C83.4931 2.73205 83.4931 4.51806 83.4931 5.80706V14.155C83.4754 14.2732 83.4144 14.3806 83.3221 14.4563C83.2297 14.5321 83.1124 14.5708 82.9931 14.5651H80.4161C80.3048 14.5545 80.1996 14.5093 80.1155 14.4357C80.0313 14.3621 79.9724 14.2639 79.9471 14.155V6.95006C79.9471 5.48606 80.1231 3.37706 78.3361 3.37706C78.0125 3.39216 77.7 3.49939 77.4353 3.68612C77.1707 3.87284 76.9648 4.13129 76.8421 4.43105C76.5288 5.23226 76.389 6.09085 76.4321 6.95006V14.0971C76.4159 14.2258 76.3535 14.3443 76.2566 14.4305C76.1597 14.5167 76.0348 14.5649 75.9051 14.5661V14.5601ZM41.4901 8.23305C41.5858 9.17625 41.4237 10.1278 41.0211 10.9861C40.8577 11.3253 40.6051 11.6136 40.2903 11.8201C39.9754 12.0266 39.6103 12.1434 39.2341 12.1581C38.2341 12.1581 37.6521 11.3961 37.6521 10.2831C37.6521 8.08307 39.6141 7.67608 41.4891 7.67608L41.4901 8.23305ZM44.0971 14.5331C44.0136 14.606 43.9094 14.6509 43.7991 14.6615C43.6888 14.672 43.5779 14.6478 43.4821 14.5921C42.8855 14.1093 42.3796 13.5242 41.9881 12.8641C41.4774 13.4884 40.8267 13.9836 40.0888 14.3094C39.3509 14.6352 38.5466 14.7824 37.7411 14.7391C37.2126 14.7701 36.6836 14.6863 36.1905 14.4935C35.6975 14.3007 35.252 14.0035 34.8846 13.6222C34.5173 13.2409 34.2369 12.7846 34.0626 12.2847C33.8884 11.7848 33.8244 11.2531 33.8751 10.7261C33.8447 9.82527 34.0928 8.93701 34.5854 8.18224C35.078 7.42747 35.7913 6.84288 36.6281 6.50808C38.2002 5.98665 39.8358 5.68117 41.4901 5.60006V5.27807C41.5777 4.63483 41.4652 3.98023 41.1681 3.40307C40.9997 3.18472 40.7817 3.00966 40.5321 2.89245C40.2826 2.77523 40.0086 2.71922 39.7331 2.72905C39.2564 2.68745 38.781 2.82263 38.3974 3.10881C38.0139 3.395 37.749 3.81221 37.6531 4.28106C37.5941 4.51506 37.4531 4.75005 37.2141 4.75005L34.7241 4.48607C34.664 4.47762 34.6062 4.45711 34.5541 4.42577C34.5021 4.39443 34.457 4.35291 34.4214 4.3037C34.3858 4.25449 34.3605 4.19858 34.3471 4.13936C34.3336 4.08014 34.3323 4.01882 34.3431 3.95907C34.9291 0.913065 37.6531 0.00505527 40.1131 0.00505527C41.5268 -0.0553975 42.9139 0.403041 44.0131 1.29406C45.2721 2.46606 45.1551 4.04705 45.1551 5.74605V9.75905C45.1715 10.6507 45.5157 11.5051 46.1221 12.1591C46.2981 12.3931 46.3271 12.6861 46.1221 12.8331C45.5611 13.2751 44.6221 14.0951 44.0971 14.5331ZM7.6611 8.23305C7.75684 9.17625 7.59473 10.1278 7.19209 10.9861C7.02874 11.3253 6.77609 11.6136 6.46126 11.8201C6.14643 12.0266 5.78132 12.1434 5.40511 12.1581C4.40511 12.1581 3.82311 11.3961 3.82311 10.2831C3.82311 8.08307 5.7851 7.67608 7.6601 7.67608L7.6611 8.23305ZM10.2391 14.5331C10.1556 14.606 10.0514 14.6509 9.94109 14.6615C9.83077 14.672 9.71991 14.6478 9.6241 14.5921C9.02753 14.1093 8.52164 13.5241 8.1301 12.8641C7.6194 13.4884 6.9687 13.9836 6.23079 14.3094C5.49288 14.6352 4.68856 14.7824 3.8831 14.7391C3.35458 14.7701 2.82561 14.6863 2.33254 14.4935C1.83946 14.3007 1.39396 14.0035 1.02664 13.6222C0.659329 13.2409 0.378903 12.7846 0.204637 12.2847C0.0303719 11.7848 -0.0335986 11.2531 0.0171068 10.7261C-0.0132572 9.82527 0.23475 8.93701 0.727373 8.18224C1.22 7.42747 1.93328 6.84288 2.7701 6.50808C4.34217 5.98665 5.97779 5.68117 7.6321 5.60006V5.27807C7.71965 4.63483 7.60725 3.98023 7.31011 3.40307C7.14173 3.18472 6.9237 3.00966 6.67414 2.89245C6.42457 2.77523 6.15064 2.71922 5.87509 2.72905C5.39836 2.68745 4.92298 2.82263 4.53943 3.10881C4.15588 3.395 3.89097 3.81221 3.79511 4.28106C3.73611 4.51506 3.5901 4.75005 3.3561 4.75005L0.866106 4.48607C0.805969 4.47762 0.748155 4.45711 0.696138 4.42577C0.644122 4.39443 0.598966 4.35291 0.563387 4.3037C0.527807 4.25449 0.502529 4.19858 0.489076 4.13936C0.475624 4.08014 0.474269 4.01882 0.485094 3.95907C1.07109 0.913065 3.7951 0.00505527 6.2551 0.00505527C7.66881 -0.0553975 9.05587 0.403041 10.1551 1.29406C11.4141 2.46606 11.2971 4.04705 11.2971 5.74605V9.75905C11.3136 10.6507 11.6578 11.5051 12.2641 12.1591C12.4401 12.3931 12.4691 12.6861 12.2641 12.8331C11.7071 13.2721 10.7701 14.0921 10.2431 14.5331H10.2391Z" fill="#222222"/>
</svg>
