<svg width="122" height="24" viewBox="0 0 122 24" fill="none" xmlns="http://www.w3.org/2000/svg">
<path fill-rule="evenodd" clip-rule="evenodd" d="M3.70089 2.23493C4.60915 1.44576 5.66465 0.844175 6.80651 0.464868C7.94838 0.0855613 9.15404 -0.0639673 10.354 0.0249028C11.5539 0.113773 12.7244 0.439284 13.7979 0.982669C14.8714 1.52605 15.8268 2.27656 16.6089 3.19093C18.2907 4.89166 19.273 7.16163 19.3615 9.55185C19.45 11.9421 18.6383 14.2785 17.0869 16.0989L9.91589 23.2699C8.48189 22.3139 6.09189 20.4019 7.04789 18.4889C8.95989 16.0989 11.3479 14.1889 13.2629 11.7959C14.6969 9.88393 13.7409 6.05893 10.8729 5.58093C10.2293 5.35597 9.53875 5.30002 8.86735 5.41843C8.19595 5.53684 7.56619 5.82565 7.0384 6.2572C6.51061 6.68875 6.10245 7.24858 5.85303 7.88308C5.6036 8.51758 5.52126 9.20549 5.61389 9.88093C5.61389 12.2709 7.52589 13.7049 8.95989 15.1399C7.52589 16.5739 5.61389 17.5299 5.61389 19.4399C4.17989 17.5279 1.78989 16.0939 0.832887 13.7029C-0.0411384 11.7461 -0.233568 9.55272 0.286386 7.47363C0.80634 5.39454 2.00863 3.54993 3.70089 2.23493Z" fill="#222222"/>
<path fill-rule="evenodd" clip-rule="evenodd" d="M34.2968 2.23487C34.7748 0.800873 36.2088 1.27887 37.1648 1.27887V18.9619H34.2968V17.5319C33.1458 18.4599 31.7118 18.966 30.2333 18.966C28.7548 18.966 27.3208 18.4599 26.1698 17.5319C24.8458 16.323 24.0528 14.6403 23.9633 12.8497C23.8738 11.0592 24.495 9.30572 25.6918 7.97087C26.768 6.79956 28.2318 6.05745 29.8127 5.88172C31.3936 5.70598 32.9846 6.1085 34.2918 7.01487L34.2968 2.23487ZM29.9968 8.44987C27.6068 8.92787 25.6968 12.2739 27.6068 14.6649C27.9639 15.1858 28.4518 15.6036 29.0214 15.8764C29.5911 16.1492 30.2225 16.2673 30.8522 16.2188C31.4819 16.1704 32.0878 15.9571 32.6091 15.6005C33.1303 15.2438 33.5485 14.7563 33.8218 14.1869C35.2528 11.7959 32.8618 8.44887 29.9938 8.44887L29.9968 8.44987Z" fill="#222222"/>
<path fill-rule="evenodd" clip-rule="evenodd" d="M39.5549 6.05883H42.4229V7.01483C43.3789 5.58083 45.2909 5.58083 47.2039 6.05883C46.7259 7.01483 46.2479 7.49283 46.2479 8.44883C44.3359 7.97083 42.4239 8.92683 42.4239 10.3608V17.5318C41.9449 18.9708 40.5109 18.9708 39.5549 18.9708V6.05883Z" fill="#222222"/>
<path fill-rule="evenodd" clip-rule="evenodd" d="M51.5058 6.05984C56.2868 4.14784 61.0668 8.92785 60.1058 13.7088C59.1448 18.4898 52.4568 20.8798 49.1058 17.5328C45.2818 14.1868 46.7158 7.01584 51.4958 6.05984H51.5058ZM52.9398 8.44985C52.137 8.664 51.405 9.08611 50.8175 9.67358C50.23 10.2611 49.8079 10.9931 49.5938 11.7958C49.4957 12.3413 49.5227 12.9018 49.6729 13.4353C49.8231 13.9687 50.0925 14.4611 50.4608 14.8752C50.829 15.2893 51.2866 15.6143 51.7988 15.8258C52.3111 16.0372 52.8646 16.1296 53.4178 16.0958C55.3298 16.0958 57.2418 14.6618 57.2418 12.7498C57.2418 10.3618 54.8528 7.97185 52.9418 8.44985H52.9398Z" fill="#222222"/>
<path fill-rule="evenodd" clip-rule="evenodd" d="M62.0239 6.05903H64.8919V7.01503C66.1991 6.10866 67.7901 5.70614 69.371 5.88187C70.9519 6.05761 72.4158 6.79972 73.4919 7.97103C74.0829 8.58531 74.5416 9.31425 74.8398 10.1128C75.1379 10.9114 75.2691 11.7626 75.2252 12.6139C75.1813 13.4652 74.9633 14.2984 74.5847 15.0621C74.2061 15.8258 73.6749 16.5037 73.0239 17.054C71.1119 19.444 67.2869 19.444 64.8969 18.01V22.31C64.4189 23.744 62.9849 23.744 62.0289 23.744V6.05903H62.0239ZM68.2389 8.44903C65.3709 8.92703 63.9389 12.273 65.3709 14.186C66.8049 16.576 70.6299 16.576 71.5859 14.186C73.4969 11.795 71.1069 8.44903 68.2389 8.44903Z" fill="#222222"/>
<path fill-rule="evenodd" clip-rule="evenodd" d="M80.1898 6.53782C81.3997 5.85935 82.795 5.58612 84.1715 5.75815C85.5479 5.93018 86.8331 6.53844 87.8388 7.49382C87.3608 7.97182 86.8828 8.92782 85.9268 9.40582C85.4812 9.04481 84.9577 8.79233 84.3978 8.66831C83.8379 8.54429 83.2568 8.55212 82.7004 8.69119C82.1441 8.83026 81.6276 9.09676 81.1919 9.46965C80.7562 9.84254 80.4131 10.3116 80.1898 10.8398C79.982 11.4059 79.9076 12.0122 79.9722 12.6118C80.0369 13.2113 80.2389 13.7878 80.5626 14.2966C80.8863 14.8053 81.3229 15.2326 81.8386 15.5452C82.3542 15.8577 82.935 16.0472 83.5358 16.0988C84.4918 16.0988 85.4478 15.6208 86.4038 15.6208C87.2577 15.9968 87.9398 16.6789 88.3158 17.5328C84.9698 20.4008 79.2328 19.4448 77.7988 15.1428C75.8868 12.2738 77.3208 8.44782 80.1898 6.53782Z" fill="#222222"/>
<path fill-rule="evenodd" clip-rule="evenodd" d="M88.3169 14.6638C86.8849 10.3618 90.2289 5.58081 94.5319 5.58081C96.253 5.65594 97.8982 6.31086 99.2 7.43916C100.502 8.56746 101.384 10.1028 101.703 11.7958V18.9668C100.269 18.9668 99.3129 18.9668 98.3569 18.0108C95.0109 20.4008 89.7569 18.4888 88.3179 14.6648L88.3169 14.6638ZM94.5319 8.44881C93.8735 8.57267 93.2544 8.85222 92.726 9.26412C92.1977 9.67602 91.7756 10.2083 91.4949 10.8166C91.2142 11.4249 91.0831 12.0914 91.1125 12.7607C91.1419 13.43 91.331 14.0825 91.6639 14.6638C93.5759 17.0538 97.4009 16.5758 98.3569 14.1858C98.6017 13.5554 98.6912 12.8754 98.6178 12.2031C98.5444 11.5308 98.3102 10.8861 97.935 10.3235C97.5599 9.76081 97.0548 9.29672 96.4625 8.97042C95.8701 8.64413 95.208 8.46522 94.5319 8.44881Z" fill="#222222"/>
<path fill-rule="evenodd" clip-rule="evenodd" d="M103.615 6.05985H106.483V7.01585C107.917 5.10385 111.264 5.58185 113.176 7.49385C115.566 4.62585 120.347 5.58185 121.303 8.92785C121.781 11.7958 121.303 15.1428 121.303 18.0108C121.303 18.9668 119.869 18.9668 118.435 18.9668C118.435 16.0988 118.913 13.2298 118.435 10.3668C118.341 9.86495 118.075 9.41158 117.683 9.08531C117.29 8.75905 116.796 8.58043 116.285 8.58043C115.774 8.58043 115.28 8.75905 114.887 9.08531C114.495 9.41158 114.229 9.86495 114.135 10.3668V18.9668H111.267C111.346 15.9313 111.186 12.8943 110.789 9.88385C110.311 7.97185 106.965 8.44985 106.965 10.3618C106.568 13.2103 106.408 16.0869 106.487 18.9618H103.615V6.05985Z" fill="#222222"/>
</svg>
