<svg width="70" height="37" viewBox="0 0 70 37" fill="none" xmlns="http://www.w3.org/2000/svg">
<path d="M47.1619 27.9341C46.3851 27.5126 45.5148 27.293 44.6309 27.2959C44.2016 27.2723 43.772 27.3377 43.369 27.4878C42.966 27.6378 42.5983 27.8693 42.2889 28.168C41.9795 28.4666 41.7352 28.8261 41.5713 29.2236C41.4073 29.6211 41.3271 30.0481 41.3359 30.478C41.3268 30.908 41.4068 31.3352 41.5706 31.7329C41.7344 32.1306 41.9786 32.4902 42.2879 32.7891C42.5973 33.0879 42.9652 33.3197 43.3684 33.4697C43.7716 33.6198 44.2014 33.685 44.6309 33.6611C45.514 33.6631 46.3837 33.4453 47.1619 33.0278V36.228C46.273 36.5005 45.3496 36.6431 44.4199 36.6518C43.5905 36.6902 42.7619 36.5581 41.9855 36.2637C41.2091 35.9692 40.5013 35.5187 39.9059 34.9399C39.3104 34.3613 38.8397 33.667 38.5231 32.8994C38.2065 32.1318 38.0505 31.3073 38.0649 30.477C38.0514 29.6472 38.2079 28.8232 38.5249 28.0561C38.8418 27.2891 39.3125 26.5953 39.9079 26.0171C40.5034 25.439 41.2109 24.9891 41.9869 24.6948C42.7629 24.4006 43.5909 24.2682 44.4199 24.3061C45.3505 24.3087 46.2751 24.453 47.1619 24.7349V27.9341ZM15.7549 27.9341C14.9795 27.5118 14.1098 27.2924 13.2269 27.2969C12.7972 27.2725 12.3671 27.3376 11.9635 27.4873C11.56 27.637 11.1918 27.8683 10.8819 28.167C10.5719 28.4657 10.327 28.8253 10.1627 29.2231C9.99833 29.621 9.91803 30.0486 9.9269 30.479C9.918 30.9095 9.99815 31.3373 10.1623 31.7353C10.3265 32.1334 10.5712 32.493 10.8809 32.792C11.1909 33.0908 11.5593 33.3224 11.963 33.4722C12.3668 33.6219 12.797 33.6866 13.2269 33.6621C14.1091 33.6651 14.9782 33.4472 15.7549 33.0288V36.229C14.8654 36.5029 13.9406 36.6455 13.0099 36.6528C12.1807 36.6912 11.3525 36.5591 10.5764 36.2646C9.8003 35.9702 9.09294 35.5197 8.49795 34.9409C7.90299 34.362 7.43299 33.6675 7.11703 32.8999C6.80107 32.1323 6.64584 31.308 6.66091 30.478C6.64716 29.6486 6.8034 28.8253 7.12002 28.0586C7.43664 27.2919 7.90695 26.598 8.50192 26.02C9.09687 25.442 9.80385 24.9922 10.5793 24.6977C11.3548 24.4033 12.1823 24.2706 13.0109 24.3081C13.942 24.3092 14.8675 24.453 15.7549 24.7349V27.9341ZM56.6279 27.3418C56.216 27.3379 55.8076 27.4166 55.4266 27.5732C55.0456 27.7299 54.6999 27.9614 54.4099 28.2539C54.12 28.5463 53.8915 28.8937 53.7381 29.2759C53.5847 29.658 53.5095 30.0673 53.5169 30.479C53.5092 30.891 53.5841 31.3001 53.7373 31.6826C53.8905 32.0651 54.1189 32.4133 54.4089 32.706C54.699 32.9988 55.0448 33.2304 55.4259 33.3872C55.8071 33.544 56.2158 33.623 56.6279 33.6191C57.04 33.6229 57.4487 33.544 57.8299 33.3872C58.211 33.2304 58.5568 32.9988 58.847 32.706C59.1372 32.4134 59.3658 32.0656 59.5193 31.6831C59.6729 31.3006 59.7482 30.8911 59.7409 30.479C59.7472 30.0668 59.6708 29.6575 59.5163 29.2754C59.3617 28.8932 59.132 28.5458 58.8409 28.2539C58.5508 27.9615 58.2051 27.7304 57.8242 27.5737C57.4432 27.4171 57.0348 27.338 56.623 27.3418H56.6279ZM62.9229 30.478C62.9305 31.3016 62.7718 32.1185 62.4563 32.8794C62.1409 33.6402 61.6751 34.3296 61.0869 34.9062C60.4987 35.4829 59.8002 35.935 59.0332 36.2353C58.2661 36.5357 57.4464 36.6778 56.623 36.6538C55.7996 36.6779 54.9798 36.536 54.2128 36.2358C53.4458 35.9356 52.7472 35.4837 52.1589 34.9072C51.5706 34.3305 51.1047 33.6409 50.7892 32.8799C50.4737 32.1188 50.3151 31.3018 50.3229 30.478C50.3158 29.6546 50.475 28.8381 50.7908 28.0776C51.1066 27.3171 51.5726 26.6284 52.1609 26.0522C52.7491 25.476 53.4476 25.0241 54.2144 24.7241C54.9813 24.4241 55.8008 24.282 56.6239 24.3061C57.4469 24.2824 58.2662 24.4249 59.0329 24.7251C59.7995 25.0253 60.4978 25.477 61.0859 26.0532C61.6739 26.6294 62.1398 27.3178 62.4556 28.0781C62.7714 28.8384 62.9307 29.6548 62.9239 30.478H62.9229ZM34.3059 27.228C33.5386 27.0166 32.7493 26.895 31.9539 26.8652C30.7479 26.8652 30.0929 27.2648 30.0929 27.8418C30.0929 28.5688 30.9769 28.822 31.4719 28.978L32.3019 29.2422C33.0902 29.4088 33.7994 29.8361 34.3152 30.4551C34.831 31.0741 35.1232 31.8484 35.1449 32.6538C35.1449 35.6538 32.5109 36.6538 30.2079 36.6538C29.1179 36.6437 28.0311 36.5349 26.9609 36.3281V33.582C27.885 33.8508 28.8398 33.9998 29.8019 34.0259C31.3019 34.0259 31.9869 33.5881 31.9869 32.9131C31.9869 32.3131 31.3869 31.9601 30.6449 31.7261C30.4639 31.6651 30.1889 31.5801 30.0029 31.5181C28.3269 30.9881 26.9299 30.0028 26.9299 28.0298C26.9299 25.7998 28.5999 24.3022 31.3729 24.3022C32.3619 24.3156 33.3461 24.4427 34.3059 24.6811V27.2261V27.228Z" fill="#222222"/>
<path d="M3.46893 11.7029C3.46787 11.3075 3.30991 10.9287 3.02979 10.6497C2.74966 10.3707 2.37027 10.2146 1.97491 10.2151C1.57981 10.2148 1.20075 10.3709 0.920715 10.6497C0.640679 10.9284 0.482545 11.3068 0.480957 11.7019V14.8328C0.491864 15.2222 0.653838 15.5924 0.932678 15.8645C1.21152 16.1366 1.5853 16.2894 1.97491 16.2908C2.36499 16.2909 2.73963 16.1384 3.0188 15.866C3.29797 15.5935 3.45953 15.2227 3.46893 14.8328V11.7029ZM11.674 7.59497C11.674 7.19874 11.5165 6.81851 11.2363 6.53833C10.9561 6.25815 10.5762 6.10083 10.1799 6.10083C9.7837 6.10083 9.40371 6.25815 9.12354 6.53833C8.84336 6.81851 8.68591 7.19874 8.68591 7.59497V14.8328C8.68591 15.229 8.84336 15.6092 9.12354 15.8894C9.40371 16.1696 9.7837 16.3269 10.1799 16.3269C10.5762 16.3269 10.9561 16.1696 11.2363 15.8894C11.5165 15.6092 11.674 15.229 11.674 14.8328V7.59399V7.59497ZM19.8799 1.9729C19.8789 1.57763 19.7211 1.19881 19.4412 0.919678C19.1613 0.640551 18.7822 0.48413 18.3869 0.484131C17.9913 0.483865 17.6117 0.640306 17.3316 0.919678C17.0515 1.19905 16.8937 1.57826 16.8929 1.97388V17.8069C16.9026 18.1967 17.0642 18.5674 17.3434 18.8396C17.6225 19.1118 17.997 19.264 18.3869 19.2639C18.7768 19.264 19.1513 19.1118 19.4305 18.8396C19.7096 18.5674 19.8713 18.1967 19.8809 17.8069L19.8799 1.9729ZM28.085 7.59497C28.085 7.19874 27.9275 6.81851 27.6473 6.53833C27.3672 6.25815 26.9872 6.10083 26.5909 6.10083C26.1947 6.10083 25.8147 6.25815 25.5345 6.53833C25.2543 6.81851 25.0969 7.19874 25.0969 7.59497V14.8328C25.0969 15.229 25.2543 15.6092 25.5345 15.8894C25.8147 16.1696 26.1947 16.3269 26.5909 16.3269C26.9872 16.3269 27.3672 16.1696 27.6473 15.8894C27.9275 15.6092 28.085 15.229 28.085 14.8328V7.59399V7.59497ZM36.2849 11.7029C36.2852 11.3087 36.1289 10.9306 35.8505 10.6516C35.572 10.3726 35.1941 10.2156 34.7999 10.2151C34.4047 10.2143 34.0253 10.3703 33.7451 10.6492C33.465 10.928 33.307 11.3066 33.3059 11.7019V14.8328C33.3059 15.2277 33.4628 15.6067 33.7421 15.886C34.0213 16.1652 34.4 16.322 34.7949 16.322C35.189 16.3207 35.5664 16.1631 35.8446 15.884C36.1228 15.6049 36.2789 15.2268 36.2789 14.8328L36.2849 11.7029ZM44.494 7.59497C44.4843 7.20642 44.3232 6.83712 44.045 6.56567C43.7668 6.29423 43.3936 6.14199 43.0049 6.14185C42.6163 6.14199 42.243 6.29423 41.9648 6.56567C41.6867 6.83712 41.5256 7.20642 41.5159 7.59497V14.8328C41.5159 15.2277 41.6728 15.6067 41.952 15.886C42.2313 16.1652 42.61 16.322 43.0049 16.322C43.3999 16.322 43.7786 16.1652 44.0578 15.886C44.337 15.6067 44.494 15.2277 44.494 14.8328V7.59399V7.59497ZM52.705 1.9729C52.7047 1.57817 52.5476 1.19968 52.2684 0.920655C51.9892 0.641629 51.6107 0.485108 51.2159 0.485108C50.8212 0.485108 50.4426 0.641629 50.1634 0.920655C49.8842 1.19968 49.7272 1.57817 49.7269 1.9729V17.8069C49.7151 18.0756 49.7763 18.3425 49.9039 18.5793C50.0316 18.8162 50.2209 19.0142 50.4519 19.1521C50.683 19.2897 50.947 19.3621 51.2159 19.3621C51.4849 19.3621 51.7488 19.2897 51.9799 19.1521C52.2111 19.0142 52.4005 18.8159 52.5282 18.5789C52.6559 18.3419 52.717 18.0748 52.705 17.8059V1.9729ZM60.9139 7.59497C60.9132 7.39777 60.8737 7.20264 60.7975 7.02075C60.7213 6.83887 60.61 6.67374 60.4699 6.53491C60.3296 6.39655 60.1635 6.28726 59.9809 6.21314C59.7983 6.13901 59.603 6.10138 59.4059 6.10278C59.0109 6.10305 58.6322 6.2604 58.353 6.5398C58.0738 6.8192 57.9169 7.19802 57.9169 7.59302V14.8318C57.9164 15.0278 57.9546 15.2219 58.0292 15.4031C58.1039 15.5843 58.2135 15.7492 58.3519 15.8879C58.6313 16.1679 59.0104 16.3254 59.4059 16.3259C59.6033 16.3277 59.799 16.2904 59.9818 16.2161C60.1645 16.1417 60.3308 16.0318 60.4709 15.8928C60.6112 15.754 60.7226 15.5891 60.7986 15.407C60.8747 15.2249 60.9139 15.0291 60.9139 14.8318V7.59302V7.59497ZM69.1079 11.7029C69.1079 11.3074 68.9508 10.9283 68.6712 10.6487C68.3916 10.3691 68.0124 10.2117 67.6169 10.2117C67.2215 10.2117 66.8422 10.3691 66.5626 10.6487C66.283 10.9283 66.1259 11.3074 66.1259 11.7029V14.8328C66.1255 15.0289 66.1638 15.2232 66.2385 15.4045C66.3133 15.5858 66.423 15.7506 66.5615 15.8894C66.7 16.0283 66.8645 16.1384 67.0456 16.2136C67.2267 16.2888 67.4208 16.3278 67.6169 16.3279C67.8129 16.3276 68.0068 16.2888 68.1877 16.2136C68.3687 16.1384 68.533 16.0281 68.6713 15.8894C68.8097 15.7507 68.9194 15.5861 68.9941 15.405C69.0689 15.2239 69.1072 15.0297 69.1069 14.8337V11.7039L69.1079 11.7029Z" fill="#222222"/>
<path d="M67.3838 34.8708V35.0579H66.8518V36.4412H66.6328V35.0588H66.0989V34.8708H67.3838ZM67.4949 34.8708H67.8368L68.3068 36.1589H68.3148L68.7698 34.8718H69.1058V36.4412H68.8818V35.1541H68.8738L68.3978 36.4412H68.1908L67.7258 35.1541H67.7158V36.4412H67.4968L67.4949 34.8708Z" fill="#222222"/>
</svg>
