<svg width="31" height="31" viewBox="0 0 31 31" fill="none" xmlns="http://www.w3.org/2000/svg">
<path fill-rule="evenodd" clip-rule="evenodd" d="M9.92125 1.999C11.3875 1.9315 11.855 1.9165 15.59 1.9165C19.325 1.9165 19.7925 1.93275 21.2575 1.999C22.7225 2.06525 23.7225 2.299 24.5975 2.63775C25.5137 2.984 26.345 3.52525 27.0325 4.22525C27.7325 4.9115 28.2725 5.7415 28.6175 6.659C28.9575 7.534 29.19 8.534 29.2575 9.9965C29.325 11.4653 29.34 11.9328 29.34 15.6665C29.34 19.4015 29.3237 19.869 29.2575 21.3353C29.1912 22.7978 28.9575 23.7978 28.6175 24.6728C28.2725 25.5904 27.7316 26.4218 27.0325 27.109C26.345 27.809 25.5137 28.349 24.5975 28.694C23.7225 29.034 22.7225 29.2665 21.26 29.334C19.7925 29.4015 19.325 29.4165 15.59 29.4165C11.855 29.4165 11.3875 29.4003 9.92125 29.334C8.45875 29.2678 7.45875 29.034 6.58375 28.694C5.66615 28.349 4.83477 27.8081 4.1475 27.109C3.44797 26.4223 2.90664 25.5914 2.56125 24.674C2.2225 23.799 1.99 22.799 1.9225 21.3365C1.855 19.8678 1.84 19.4003 1.84 15.6665C1.84 11.9315 1.85625 11.464 1.9225 9.999C1.98875 8.534 2.2225 7.534 2.56125 6.659C2.90715 5.74161 3.44889 4.91065 4.14875 4.224C4.83505 3.52463 5.66559 2.98331 6.5825 2.63775C7.4575 2.299 8.4575 2.0665 9.92 1.999H9.92125ZM21.1462 4.474C19.6962 4.40775 19.2612 4.394 15.59 4.394C11.9187 4.394 11.4837 4.40775 10.0337 4.474C8.6925 4.53525 7.965 4.759 7.48 4.94775C6.83875 5.19775 6.38 5.494 5.89875 5.97525C5.44255 6.41907 5.09147 6.95936 4.87125 7.5565C4.6825 8.0415 4.45875 8.769 4.3975 10.1103C4.33125 11.5603 4.3175 11.9953 4.3175 15.6665C4.3175 19.3378 4.33125 19.7728 4.3975 21.2228C4.45875 22.564 4.6825 23.2915 4.87125 23.7765C5.09125 24.3728 5.4425 24.914 5.89875 25.3578C6.3425 25.814 6.88375 26.1653 7.48 26.3853C7.965 26.574 8.6925 26.7978 10.0337 26.859C11.4837 26.9253 11.9175 26.939 15.59 26.939C19.2625 26.939 19.6962 26.9253 21.1462 26.859C22.4875 26.7978 23.215 26.574 23.7 26.3853C24.3412 26.1353 24.8 25.839 25.2812 25.3578C25.7375 24.914 26.0887 24.3728 26.3087 23.7765C26.4975 23.2915 26.7212 22.564 26.7825 21.2228C26.8487 19.7728 26.8625 19.3378 26.8625 15.6665C26.8625 11.9953 26.8487 11.5603 26.7825 10.1103C26.7212 8.769 26.4975 8.0415 26.3087 7.5565C26.0587 6.91525 25.7625 6.4565 25.2812 5.97525C24.8374 5.51909 24.2971 5.16802 23.7 4.94775C23.215 4.759 22.4875 4.53525 21.1462 4.474ZM13.8337 19.9053C14.8146 20.3135 15.9067 20.3686 16.9237 20.0612C17.9406 19.7537 18.8192 19.1026 19.4095 18.2193C19.9998 17.336 20.2651 16.2751 20.1601 15.2179C20.055 14.1607 19.5863 13.1727 18.8337 12.4228C18.354 11.9433 17.774 11.5763 17.1354 11.3479C16.4968 11.1196 15.8155 11.0357 15.1406 11.1023C14.4657 11.1688 13.8139 11.3842 13.2323 11.7329C12.6506 12.0816 12.1534 12.5549 11.7766 13.1188C11.3998 13.6827 11.1527 14.3231 11.0531 14.994C10.9536 15.6648 11.0039 16.3494 11.2007 16.9984C11.3974 17.6474 11.7356 18.2448 12.1909 18.7474C12.6462 19.25 13.2073 19.6455 13.8337 19.9053ZM10.5925 10.669C11.2488 10.0127 12.0279 9.49213 12.8854 9.13696C13.7428 8.78178 14.6619 8.59897 15.59 8.59897C16.5181 8.59897 17.4372 8.78178 18.2946 9.13696C19.1521 9.49213 19.9312 10.0127 20.5875 10.669C21.2438 11.3253 21.7644 12.1044 22.1195 12.9619C22.4747 13.8193 22.6575 14.7384 22.6575 15.6665C22.6575 16.5946 22.4747 17.5137 22.1195 18.3711C21.7644 19.2286 21.2438 20.0077 20.5875 20.664C19.2621 21.9894 17.4644 22.734 15.59 22.734C13.7156 22.734 11.9179 21.9894 10.5925 20.664C9.26708 19.3386 8.52246 17.5409 8.52246 15.6665C8.52246 13.7921 9.26708 11.9944 10.5925 10.669ZM24.225 9.6515C24.3876 9.49809 24.5178 9.31361 24.6079 9.10897C24.6979 8.90434 24.746 8.68371 24.7493 8.46017C24.7525 8.23662 24.7109 8.01469 24.6269 7.80752C24.5428 7.60034 24.418 7.41214 24.2599 7.25405C24.1019 7.09596 23.9137 6.9712 23.7065 6.88715C23.4993 6.8031 23.2774 6.76147 23.0538 6.76473C22.8303 6.76799 22.6097 6.81607 22.405 6.90612C22.2004 6.99618 22.0159 7.12637 21.8625 7.289C21.5641 7.60529 21.4008 8.02541 21.4071 8.46017C21.4135 8.89493 21.589 9.3101 21.8964 9.61756C22.2039 9.92501 22.6191 10.1005 23.0538 10.1069C23.4886 10.1132 23.9087 9.94987 24.225 9.6515Z" fill="white"/>
</svg>
