<svg width="31" height="31" viewBox="0 0 31 31" fill="none" xmlns="http://www.w3.org/2000/svg">
<g clip-path="url(#clip0_76_7823)">
<path d="M30.1437 6.83773C29.1 7.30023 27.9787 7.61273 26.8 7.75398C28.0162 7.02622 28.9262 5.88081 29.36 4.53148C28.2173 5.21021 26.9667 5.68797 25.6625 5.94398C24.7855 5.00756 23.6238 4.38689 22.3579 4.17832C21.092 3.96976 19.7926 4.18497 18.6615 4.79054C17.5305 5.39612 16.631 6.35818 16.1027 7.52736C15.5744 8.69654 15.4469 10.0074 15.74 11.2565C13.4246 11.1402 11.1595 10.5384 9.09176 9.49011C7.02401 8.4418 5.19978 6.97043 3.73748 5.17148C3.23748 6.03398 2.94998 7.03398 2.94998 8.09898C2.94942 9.05772 3.18552 10.0018 3.63733 10.8474C4.08914 11.693 4.74268 12.414 5.53998 12.9465C4.61533 12.9171 3.71107 12.6672 2.90248 12.2177V12.2927C2.90239 13.6374 3.36752 14.9407 4.21896 15.9815C5.0704 17.0222 6.25569 17.7364 7.57373 18.0027C6.71596 18.2349 5.81665 18.2691 4.94373 18.1027C5.3156 19.2597 6.03997 20.2715 7.01544 20.9964C7.9909 21.7213 9.16863 22.123 10.3837 22.1452C8.32102 23.7645 5.77359 24.6428 3.15123 24.639C2.68671 24.6391 2.22258 24.612 1.76123 24.5577C4.42308 26.2692 7.52166 27.1775 10.6862 27.174C21.3987 27.174 27.255 18.3015 27.255 10.6065C27.255 10.3565 27.2487 10.104 27.2375 9.85398C28.3766 9.0302 29.3599 8.0101 30.1412 6.84148L30.1437 6.83773Z" fill="white"/>
</g>
<defs>
<clipPath id="clip0_76_7823">
<rect width="30" height="30" fill="white" transform="translate(0.589966 0.666504)"/>
</clipPath>
</defs>
</svg>
