<svg width="31" height="31" viewBox="0 0 31 31" fill="none" xmlns="http://www.w3.org/2000/svg">
<path d="M21.5678 11.5617C21.7522 11.5617 21.9366 11.5677 22.1178 11.5769C21.3553 7.66069 17.1704 4.6665 12.1198 4.6665C6.53172 4.6665 1.99997 8.33621 1.99997 12.864C1.99997 15.3318 3.36262 17.5561 5.49723 19.0593C5.58528 19.1198 5.65708 19.2001 5.70658 19.2933C5.75608 19.3865 5.78182 19.4899 5.78164 19.5949C5.78164 19.6679 5.76601 19.7348 5.74726 19.8048C5.57537 20.4225 5.30346 21.4114 5.29096 21.4571C5.26908 21.5362 5.23783 21.6153 5.23783 21.6975C5.23783 21.877 5.38785 22.0261 5.57537 22.0261C5.64725 22.0261 5.70663 21.9987 5.76914 21.9653L7.98501 20.7207C8.15066 20.6264 8.3288 20.5686 8.52257 20.5686C8.62258 20.5686 8.72259 20.5838 8.81948 20.6112C9.85397 20.9002 10.9697 21.0615 12.123 21.0615C12.3105 21.0615 12.4949 21.0585 12.6793 21.0493C12.4574 20.4103 12.3386 19.7379 12.3386 19.041C12.3386 14.9088 16.4703 11.5617 21.5678 11.5617ZM15.4952 8.92957C16.2391 8.92957 16.8454 9.51685 16.8454 10.2411C16.8454 10.9653 16.2422 11.5525 15.4952 11.5525C14.7514 11.5525 14.1451 10.9653 14.1451 10.2411C14.1451 9.51685 14.7514 8.92957 15.4952 8.92957ZM8.7476 11.5525C8.00376 11.5525 7.39745 10.9653 7.39745 10.2411C7.39745 9.51685 8.00064 8.92957 8.7476 8.92957C9.49456 8.92957 10.0977 9.51685 10.0977 10.2411C10.0977 10.9653 9.49143 11.5525 8.7476 11.5525ZM27.0871 24.1987C28.8655 22.9451 30 21.095 30 19.035C30 15.2618 26.2245 12.2037 21.5647 12.2037C16.9079 12.2037 13.1293 15.2618 13.1293 19.035C13.1293 22.8081 16.9048 25.8662 21.5647 25.8662C22.5273 25.8662 23.4586 25.7323 24.3181 25.4919C24.3993 25.4676 24.4806 25.4554 24.565 25.4554C24.7275 25.4554 24.8744 25.5041 25.0119 25.5802L26.859 26.6148C26.9121 26.6452 26.9621 26.6665 27.0215 26.6665C27.0586 26.6668 27.0953 26.6599 27.1296 26.6464C27.164 26.6328 27.1952 26.6127 27.2215 26.5874C27.2476 26.5617 27.2682 26.5313 27.2821 26.4979C27.2961 26.4645 27.3031 26.4287 27.3028 26.3926C27.3028 26.3257 27.2747 26.2588 27.259 26.1918C27.2497 26.1553 27.0215 25.3307 26.8777 24.8134C26.8621 24.7556 26.8496 24.6978 26.8496 24.6399C26.8527 24.4604 26.9465 24.2991 27.0871 24.1987ZM18.7581 17.9456C18.1361 17.9456 17.633 17.4557 17.633 16.8532C17.633 16.2507 18.1361 15.7608 18.7581 15.7608C19.38 15.7608 19.8832 16.2507 19.8832 16.8532C19.8832 17.4557 19.3769 17.9456 18.7581 17.9456ZM24.3806 17.9456C23.7586 17.9456 23.2555 17.4557 23.2555 16.8532C23.2555 16.2507 23.7586 15.7608 24.3806 15.7608C25.0025 15.7608 25.5057 16.2507 25.5057 16.8532C25.5042 17.143 25.3851 17.4205 25.1743 17.6251C24.9636 17.8298 24.6782 17.945 24.3806 17.9456Z" fill="white"/>
</svg>
