<svg width="31" height="31" viewBox="0 0 31 31" fill="none" xmlns="http://www.w3.org/2000/svg">
<g clip-path="url(#clip0_76_7819)">
<path d="M29.9649 8.80035C29.7951 8.19439 29.4642 7.64578 29.0074 7.21285C28.5378 6.7666 27.9622 6.44739 27.3349 6.28535C24.9874 5.6666 15.5824 5.6666 15.5824 5.6666C11.6616 5.62199 7.74173 5.81819 3.84494 6.2541C3.21768 6.42812 2.64315 6.75446 2.17244 7.2041C1.70994 7.6491 1.37494 8.19785 1.19994 8.7991C0.77956 11.0638 0.575309 13.3633 0.589944 15.6666C0.574944 17.9678 0.778694 20.2666 1.19994 22.5341C1.37119 23.1328 1.70494 23.6791 2.16869 24.1203C2.63244 24.5616 3.20994 24.8804 3.84494 25.0491C6.22369 25.6666 15.5824 25.6666 15.5824 25.6666C19.5083 25.7113 23.4331 25.5151 27.3349 25.0791C27.9622 24.9171 28.5378 24.5978 29.0074 24.1516C29.464 23.7188 29.7945 23.1701 29.9637 22.5641C30.3951 20.3003 30.6048 17.9998 30.5899 15.6953C30.6224 13.3811 30.4129 11.0698 29.9649 8.7991V8.80035ZM12.5924 19.9466V11.3878L20.4174 15.6678L12.5924 19.9466Z" fill="white"/>
</g>
<defs>
<clipPath id="clip0_76_7819">
<rect width="30" height="30" fill="white" transform="translate(0.589966 0.666504)"/>
</clipPath>
</defs>
</svg>
